G04 ================== begin FILE IDENTIFICATION RECORD ==================*
G04 Layout Name:  C:/Armadillo_II_Development_System/Catskills (mx28)/Test_Layouts/China/mx28_289bga_ddr2_test_layout_revB.brd*
G04 Film Name:    BOTTOM*
G04 File Format:  Gerber RS274X*
G04 File Origin:  16.01-s006*
G04 Origin Date:  Wed Oct 27 15:23:07 2010*
G04 *
G04 Layer:  ETCH/BOTTOM*
G04 Layer:  PIN/BOTTOM*
G04 Layer:  VIA CLASS/BOTTOM*
G04 *
G04 Offset:    (0.0000 0.0000)*
G04 Mirror:    No*
G04 Mode:      Positive*
G04 Rotation:  0*
G04 FullContactRelief:  No*
G04 UndefLineWidth:     0.0000*
G04 ================== end FILE IDENTIFICATION RECORD ====================*
%FSLAX55Y55*MOMM*%
%IR0*IPPOS*OFA0.00000B0.00000*MIA0B0*SFA1.00000B1.00000*%
%ADD10C,.4*%
%ADD11C,.1*%
G75*
%LPD*%
G75*
G54D10*
X5730000Y7815000D03*
X5690000Y7620000D03*
X5468600Y7628600D03*
X5570000Y7975000D03*
Y7735000D03*
X5650000Y7895000D03*
Y7735000D03*
X5570000Y7895000D03*
X5370000Y7640000D03*
X5730000Y7895000D03*
Y7735000D03*
X5570000Y7815000D03*
X5330000Y7895000D03*
X5650000Y7975000D03*
Y7815000D03*
X5490000Y7895000D03*
X5640000Y7620000D03*
X5410000Y7895000D03*
X5330000Y7815000D03*
X5290000Y7640000D03*
X5585000Y7620000D03*
X5490000Y7975000D03*
X5330000Y7735000D03*
X5490000D03*
Y7815000D03*
X5570000Y8135000D03*
X5730000Y8055000D03*
X5650000D03*
X5733520Y8378520D03*
X5650000Y8375000D03*
X5730000Y8135000D03*
X5650000Y8535000D03*
X5730000D03*
Y8615000D03*
X5490000Y8055000D03*
X5650000Y8455000D03*
Y8135000D03*
X5730000Y8455000D03*
X5570000Y8535000D03*
X5490000Y8135000D03*
X5410000D03*
X5650000Y8295000D03*
X5730000Y8215000D03*
X5650000D03*
X5980000Y7735000D03*
X5890000Y7975000D03*
X5810000D03*
X5985000Y7935000D03*
X5890000Y7815000D03*
X5850000Y7620000D03*
X5810000Y7735000D03*
X6040000Y7855000D03*
X5890000Y7895000D03*
X5930000Y7620000D03*
X6065000Y8015000D03*
X5810000Y7815000D03*
X5770000Y7620000D03*
X6017000Y8427000D03*
X5985000Y8095000D03*
X5810000Y8535000D03*
Y8455000D03*
X5806480Y8131480D03*
X5810000Y8615000D03*
X5970000Y8375000D03*
X5810000Y8215000D03*
X5890000Y8375000D03*
X5980000Y8255000D03*
X5890000Y8215000D03*
X5982510Y8185000D03*
X5970000Y8615000D03*
X5890000D03*
X5810000Y8375000D03*
X5890000Y8055000D03*
Y8455000D03*
X5810000Y8055000D03*
X7220000Y7640000D03*
X6900000Y7480000D03*
X6820000Y7800000D03*
X6720000Y7765000D03*
X6905000Y7795000D03*
X6670000Y7950000D03*
X6820000Y7880000D03*
X7210000Y7840000D03*
X7220000Y7720000D03*
X6900000Y7880000D03*
X6725000Y7595000D03*
X7000000Y7920000D03*
X7200000D03*
X6730000Y7465000D03*
X6725000Y7920000D03*
X6820000Y7640000D03*
X6980000Y7560000D03*
X7220000D03*
X6980000Y7640000D03*
X6820000Y7480000D03*
X7220000D03*
X6820000Y7560000D03*
X6900000D03*
X7220000Y8040000D03*
X6900000D03*
X6820000D03*
X6980000Y8280000D03*
X6740000D03*
X6660000Y8160000D03*
X6820000Y8440000D03*
X6690000Y8445000D03*
X7220000Y8360000D03*
X6900000Y8120000D03*
X6985000Y8540000D03*
X7100000Y8320000D03*
Y8370000D03*
X7220000Y8200000D03*
X7090000Y8155000D03*
X7140000D03*
X6900000Y8600000D03*
Y8440000D03*
Y8280000D03*
X7220000Y8600000D03*
X6820000Y8280000D03*
X6740000Y8440000D03*
Y8040000D03*
X6980000Y8440000D03*
Y8120000D03*
X7220000D03*
X6740000Y8600000D03*
X7380000Y7880000D03*
X7300000Y7720000D03*
Y7560000D03*
X7385000Y7485000D03*
X7380000Y7640000D03*
Y7960000D03*
X7300000Y7640000D03*
Y7480000D03*
Y8120000D03*
X7380000Y8280000D03*
Y8200000D03*
X7300000Y8440000D03*
X7380000Y8040000D03*
X7300000Y8280000D03*
X7380000Y8520000D03*
Y8440000D03*
Y8360000D03*
X7300000Y8200000D03*
Y8040000D03*
Y8360000D03*
X7470000Y8400000D03*
X7380000Y8120000D03*
G54D11*
G01X7220000Y7640000D02*
X7175000D01*
X7135000Y7680000D01*
X6802660D01*
X6772660Y7650000D01*
X6111580D01*
X6006580Y7545000D01*
X5765000D01*
X5690000Y7620000D01*
G01X5468600Y7628600D02*
Y7531520D01*
X5530060Y7470060D01*
X5575130Y7425000D01*
X6845000D01*
X6900000Y7480000D01*
G01X5570000Y7975000D02*
X5610000Y7935000D01*
Y7725000D01*
X5640000Y7695000D01*
X6014370D01*
X6084370Y7765000D01*
X6720000D01*
G01X5570000Y7735000D02*
X5630000Y7675000D01*
X6022660D01*
X6077660Y7730000D01*
X6739500D01*
X6769500Y7760000D01*
X6870000D01*
X6905000Y7795000D01*
G01X6670000Y7950000D02*
X6655000Y7965000D01*
X6121080D01*
X6071080Y7915000D01*
X6014500D01*
X5954500Y7855000D01*
X5690000D01*
X5650000Y7895000D01*
G01X6820000Y7880000D02*
X6798290D01*
X6758290Y7840000D01*
X6074500D01*
X6054500Y7820000D01*
X5976080D01*
X5931080Y7775000D01*
X5690000D01*
X5650000Y7735000D01*
G01X5570000Y7895000D02*
X5535000Y7860000D01*
Y7710000D01*
X5590000Y7655000D01*
X6030950D01*
X6085950Y7710000D01*
X6747790D01*
X6777790Y7740000D01*
X6878290D01*
X6893290Y7755000D01*
X7265000D01*
X7300000Y7720000D01*
G01X5370000Y7640000D02*
Y7495000D01*
X5500000Y7365000D01*
X6906580D01*
X7061580Y7520000D01*
X7260000D01*
X7300000Y7560000D01*
G01X5640000Y7620000D02*
Y7590000D01*
X5705000Y7525000D01*
X6014870D01*
X6119870Y7630000D01*
X6810000D01*
X6820000Y7640000D01*
G01X5410000Y7895000D02*
Y7708420D01*
X5433600Y7684820D01*
Y7526400D01*
X5555000Y7405000D01*
X6890000D01*
X6980000Y7495000D01*
Y7560000D01*
G01X5330000Y7815000D02*
X5390000Y7755000D01*
Y7700130D01*
X5413600Y7676530D01*
Y7511400D01*
X5540000Y7385000D01*
X6898290D01*
X7073290Y7560000D01*
X7220000D01*
G01X5290000Y7640000D02*
Y7495000D01*
X5460000Y7325000D01*
X6923160D01*
X7043160Y7445000D01*
X7265000D01*
X7300000Y7480000D01*
G01X5585000Y7620000D02*
Y7565000D01*
X5645000Y7505000D01*
X6023160D01*
X6078160Y7560000D01*
X6760000D01*
X6805000Y7605000D01*
X6945000D01*
X6980000Y7640000D01*
G01X6820000Y7480000D02*
X6800000Y7500000D01*
X6103030D01*
X6048030Y7445000D01*
X5583420D01*
X5505000Y7523420D01*
Y7641710D01*
X5435000Y7711710D01*
Y7788290D01*
X5450000Y7803290D01*
Y7935000D01*
X5490000Y7975000D01*
G01X5330000Y7735000D02*
Y7490000D01*
X5475000Y7345000D01*
X6914870D01*
X7049870Y7480000D01*
X7220000D01*
G01X5490000Y7735000D02*
Y7720000D01*
X5545000Y7665000D01*
Y7540000D01*
X5600000Y7485000D01*
X6031450D01*
X6086450Y7540000D01*
X6800000D01*
X6820000Y7560000D01*
G01X5490000Y7815000D02*
X5455000Y7780000D01*
Y7720000D01*
X5525000Y7650000D01*
Y7531710D01*
X5591710Y7465000D01*
X6039740D01*
X6094740Y7520000D01*
X6860000D01*
X6900000Y7560000D01*
G01X6820000Y8040000D02*
X6775000Y8085000D01*
X6719870D01*
X6694870Y8060000D01*
X6615130D01*
X6580130Y8095000D01*
X6062790D01*
X5982790Y8015000D01*
X5690000D01*
X5650000Y8055000D01*
G01X6740000Y8280000D02*
X6700000Y8320000D01*
X5705000D01*
X5650000Y8375000D01*
G01X6690000Y8445000D02*
X6673000Y8462000D01*
X5946500D01*
X5904500Y8420000D01*
X5715500D01*
X5695000Y8440500D01*
Y8490000D01*
X5650000Y8535000D01*
G01X5980000Y7735000D02*
X6026080D01*
X6091080Y7800000D01*
X6820000D01*
G01X5890000Y7975000D02*
X5905000D01*
X5925000Y7995000D01*
X5991080D01*
X6046080Y8050000D01*
X6090000D01*
X6105000Y8035000D01*
X6695500D01*
X6730500Y8000000D01*
X6915000D01*
X6975000Y8060000D01*
X7128290D01*
X7148290Y8080000D01*
X7229500D01*
X7269500Y8120000D01*
X7300000D01*
G01X5810000Y7975000D02*
X5850000Y7935000D01*
X5899500D01*
X5939500Y7975000D01*
X6074500D01*
X6114500Y8015000D01*
X6687210D01*
X6722210Y7980000D01*
X6923290D01*
X6983290Y8040000D01*
X7220000D01*
G01X5985000Y7935000D02*
X6062790D01*
X6122790Y7995000D01*
X6678920D01*
X6713920Y7960000D01*
X6931580D01*
X6971580Y8000000D01*
X7340000D01*
X7380000Y8040000D01*
G01X5890000Y7815000D02*
X5942790D01*
X6017790Y7890000D01*
X6084500D01*
X6094500Y7880000D01*
X6741710D01*
X6796710Y7935000D01*
X6933290D01*
X7028290Y7840000D01*
X7210000D01*
G01X7220000Y7720000D02*
X6786080D01*
X6756080Y7690000D01*
X6095000D01*
X5990000Y7585000D01*
X5885000D01*
X5850000Y7620000D01*
G01X6900000Y7880000D02*
X6865000Y7845000D01*
X6791580D01*
X6766580Y7820000D01*
X6082790D01*
X6062790Y7800000D01*
X5984370D01*
X5919370Y7735000D01*
X5810000D01*
G01X6040000Y7855000D02*
X6045000Y7860000D01*
X6750000D01*
X6805000Y7915000D01*
X6925000D01*
X7035000Y7805000D01*
X7305000D01*
X7380000Y7880000D01*
G01X7300000Y7640000D02*
X7260000Y7680000D01*
X7205000D01*
X7185000Y7700000D01*
X6794370D01*
X6764370Y7670000D01*
X6103290D01*
X5998290Y7565000D01*
X5825000D01*
X5770000Y7620000D01*
G01X5730000Y8055000D02*
X5770000Y8095000D01*
X5910000D01*
X5945000Y8060000D01*
X5999500D01*
X6054500Y8115000D01*
X6588420D01*
X6623420Y8080000D01*
X6686580D01*
X6721580Y8115000D01*
X6825000D01*
X6900000Y8040000D01*
G01X6980000Y8280000D02*
X6920000Y8340000D01*
X5772040D01*
X5733520Y8378520D01*
G01X7380000Y8280000D02*
X7335000Y8325000D01*
X7205500D01*
X7125500Y8405000D01*
X6039000D01*
X6017000Y8427000D01*
G01X6660000Y8160000D02*
X6645000Y8175000D01*
X6025000D01*
X6000000Y8150000D01*
X5955490D01*
X5930500Y8175000D01*
X5770000D01*
X5730000Y8135000D01*
G01X5985000Y8095000D02*
X6001580D01*
X6041580Y8135000D01*
X6596710D01*
X6631710Y8100000D01*
X6678290D01*
X6713290Y8135000D01*
X6835500D01*
X6890500Y8080000D01*
X7120000D01*
X7200000Y8160000D01*
X7340000D01*
X7380000Y8200000D01*
G01X5810000Y8535000D02*
X6835500D01*
X6865500Y8505000D01*
X7235000D01*
X7300000Y8440000D01*
G01X5810000Y8455000D02*
X5845000Y8490000D01*
X6770000D01*
X6820000Y8440000D01*
G01X5730000Y8535000D02*
X5765000Y8500000D01*
X5824500D01*
X5834500Y8510000D01*
X6832210D01*
X6857210Y8485000D01*
X7095000D01*
X7220000Y8360000D01*
G01X6900000Y8120000D02*
X6865000Y8155000D01*
X6705000D01*
X6670000Y8120000D01*
X6640000D01*
X6605000Y8155000D01*
X6033290D01*
X6008290Y8130000D01*
X5807960D01*
X5806480Y8131480D01*
G01X5810000Y8615000D02*
X5860000Y8565000D01*
X6855000D01*
X6880000Y8540000D01*
X6985000D01*
G01X5970000Y8375000D02*
X5980000Y8365000D01*
X7055000D01*
X7100000Y8320000D01*
G01X5810000Y8215000D02*
X5885000Y8290000D01*
X6680500D01*
X6725500Y8245000D01*
X7000000D01*
X7035000Y8280000D01*
X7300000D01*
G01X7100000Y8370000D02*
X7085000Y8385000D01*
X6009500D01*
X5984500Y8410000D01*
X5925000D01*
X5890000Y8375000D01*
G01X7220000Y8200000D02*
X7195000Y8225000D01*
X6717210D01*
X6687210Y8255000D01*
X5980000D01*
G01X7090000Y8155000D02*
X7070000Y8135000D01*
X7043290D01*
X6983290Y8195000D01*
X6705000D01*
X6680000Y8220000D01*
X5968010D01*
X5963010Y8215000D01*
X5890000D01*
G01X7140000Y8155000D02*
X7085000Y8100000D01*
X7050000D01*
X6975000Y8175000D01*
X6696710D01*
X6676710Y8195000D01*
X5992510D01*
X5982510Y8185000D01*
G01X7380000Y8520000D02*
X7265000Y8635000D01*
X5990000D01*
X5970000Y8615000D01*
M02*
