G04 ================== begin FILE IDENTIFICATION RECORD ==================*
G04 Layout Name:  C:/Armadillo_II_Development_System/Catskills (mx28)/Test_Layouts/China/mx28_289bga_ddr2_test_layout_revB.brd*
G04 Film Name:    TOP*
G04 File Format:  Gerber RS274X*
G04 File Origin:  16.01-s006*
G04 Origin Date:  Wed Oct 27 15:23:06 2010*
G04 *
G04 Layer:  ETCH/TOP*
G04 Layer:  PIN/TOP*
G04 Layer:  VIA CLASS/TOP*
G04 *
G04 Offset:    (0.0000 0.0000)*
G04 Mirror:    No*
G04 Mode:      Positive*
G04 Rotation:  0*
G04 FullContactRelief:  No*
G04 UndefLineWidth:     0.0000*
G04 ================== end FILE IDENTIFICATION RECORD ====================*
%FSLAX55Y55*MOMM*%
%IR0*IPPOS*OFA0.00000B0.00000*MIA0B0*SFA1.00000B1.00000*%
%ADD11C,.4*%
%ADD12C,.381*%
%ADD10C,.4318*%
%ADD13C,.1*%
%ADD14C,.3*%
G75*
%LPD*%
G75*
G54D10*
X4970000Y7695000D03*
X4890000D03*
X4810000D03*
X4730000D03*
X4650000D03*
X4970000Y7775000D03*
X4890000D03*
X4810000D03*
X4730000D03*
X4650000D03*
X4970000Y7855000D03*
X4890000D03*
X4810000D03*
X4730000D03*
X4650000D03*
X4970000Y7935000D03*
X4890000D03*
X4810000D03*
X4730000D03*
X4650000D03*
X4970000Y8015000D03*
X4890000D03*
X4810000D03*
X4730000D03*
X4650000D03*
X4970000Y8095000D03*
X4890000D03*
X4810000D03*
X4730000D03*
X4650000D03*
X4970000Y8175000D03*
X4890000D03*
X4810000D03*
X4730000D03*
X4650000D03*
X4970000Y8255000D03*
X4890000D03*
X4810000D03*
X4730000D03*
X4650000D03*
X4970000Y8335000D03*
X4890000D03*
X4810000D03*
X4730000D03*
X4650000D03*
X4970000Y8415000D03*
X4890000D03*
X4810000D03*
X4730000D03*
X4650000D03*
X4970000Y8495000D03*
X4890000D03*
X4810000D03*
X4730000D03*
X4650000D03*
X4970000Y8575000D03*
X4890000D03*
X4810000D03*
X4730000D03*
X4650000D03*
X4970000Y8655000D03*
X4890000D03*
X4810000D03*
X4730000D03*
X4650000D03*
X4970000Y8735000D03*
X4890000D03*
X4810000D03*
X4730000D03*
X4650000D03*
X4970000Y8815000D03*
X4890000D03*
X4810000D03*
X4730000D03*
X4650000D03*
X4970000Y8895000D03*
X4890000D03*
X4810000D03*
X4730000D03*
X4650000D03*
X4970000Y8975000D03*
X4890000D03*
X4810000D03*
X4730000D03*
X4650000D03*
X5690000Y7695000D03*
X5610000D03*
X5530000D03*
X5450000D03*
X5370000D03*
X5290000D03*
X5210000D03*
X5130000D03*
X5050000D03*
X5690000Y7775000D03*
X5610000D03*
X5530000D03*
X5450000D03*
X5370000D03*
X5290000D03*
X5210000D03*
X5130000D03*
X5050000D03*
X5690000Y7855000D03*
X5610000D03*
X5530000D03*
X5450000D03*
X5370000D03*
X5290000D03*
X5210000D03*
X5130000D03*
X5050000D03*
X5690000Y7935000D03*
X5610000D03*
X5530000D03*
X5450000D03*
X5370000D03*
X5290000D03*
X5210000D03*
X5130000D03*
X5050000D03*
X5690000Y8015000D03*
X5610000D03*
X5530000D03*
X5450000D03*
X5370000D03*
X5290000D03*
X5210000D03*
X5130000D03*
X5050000D03*
X5690000Y8095000D03*
X5610000D03*
X5530000D03*
X5450000D03*
X5370000D03*
X5290000D03*
X5210000D03*
X5130000D03*
X5050000D03*
X5690000Y8175000D03*
X5610000D03*
X5530000D03*
X5450000D03*
X5370000D03*
X5290000D03*
X5210000D03*
X5130000D03*
X5050000D03*
X5690000Y8255000D03*
X5610000D03*
X5530000D03*
X5450000D03*
X5370000D03*
X5290000D03*
X5210000D03*
X5130000D03*
X5050000D03*
X5690000Y8335000D03*
X5610000D03*
X5530000D03*
X5450000D03*
X5370000D03*
X5290000D03*
X5210000D03*
X5130000D03*
X5050000D03*
X5690000Y8415000D03*
X5610000D03*
X5530000D03*
X5450000D03*
X5370000D03*
X5290000D03*
X5210000D03*
X5130000D03*
X5050000D03*
X5690000Y8495000D03*
X5610000D03*
X5530000D03*
X5450000D03*
X5370000D03*
X5290000D03*
X5210000D03*
X5130000D03*
X5050000D03*
X5690000Y8575000D03*
X5610000D03*
X5530000D03*
X5450000D03*
X5370000D03*
X5290000D03*
X5210000D03*
X5130000D03*
X5050000D03*
X5690000Y8655000D03*
X5610000D03*
X5530000D03*
X5450000D03*
X5370000D03*
X5290000D03*
X5210000D03*
X5130000D03*
X5050000D03*
X5690000Y8735000D03*
X5610000D03*
X5530000D03*
X5450000D03*
X5370000D03*
X5290000D03*
X5210000D03*
X5130000D03*
X5050000D03*
X5690000Y8815000D03*
X5610000D03*
X5530000D03*
X5450000D03*
X5370000D03*
X5290000D03*
X5210000D03*
X5130000D03*
X5050000D03*
X5690000Y8895000D03*
X5610000D03*
X5530000D03*
X5450000D03*
X5370000D03*
X5290000D03*
X5210000D03*
X5130000D03*
X5050000D03*
X5690000Y8975000D03*
X5610000D03*
X5530000D03*
X5450000D03*
X5370000D03*
X5290000D03*
X5210000D03*
X5130000D03*
X5050000D03*
X5930000Y7695000D03*
X5850000D03*
X5770000D03*
X5930000Y7775000D03*
X5850000D03*
X5770000D03*
X5930000Y7855000D03*
X5850000D03*
X5770000D03*
X5930000Y7935000D03*
X5850000D03*
X5770000D03*
X5930000Y8015000D03*
X5850000D03*
X5770000D03*
X5930000Y8095000D03*
X5850000D03*
X5770000D03*
X5930000Y8175000D03*
X5850000D03*
X5770000D03*
X5930000Y8255000D03*
X5850000D03*
X5770000D03*
X5930000Y8335000D03*
X5850000D03*
X5770000D03*
X5930000Y8415000D03*
X5850000D03*
X5770000D03*
X5930000Y8495000D03*
X5850000D03*
X5770000D03*
X5930000Y8575000D03*
X5850000D03*
X5770000D03*
X5930000Y8655000D03*
X5850000D03*
X5770000D03*
X5930000Y8735000D03*
X5850000D03*
X5770000D03*
X5930000Y8815000D03*
X5850000D03*
X5770000D03*
X5930000Y8895000D03*
X5850000D03*
X5770000D03*
X5930000Y8975000D03*
X5850000D03*
X5770000D03*
G54D11*
X5730000Y7815000D03*
X5690000Y7620000D03*
X5468600Y7628600D03*
X5570000Y7975000D03*
Y7735000D03*
X5650000Y7895000D03*
Y7735000D03*
X5570000Y7895000D03*
X5370000Y7640000D03*
X5730000Y7895000D03*
Y7735000D03*
X5570000Y7815000D03*
X5330000Y7895000D03*
X5650000Y7975000D03*
Y7815000D03*
X5490000Y7895000D03*
X5640000Y7620000D03*
X5410000Y7895000D03*
X5330000Y7815000D03*
X5290000Y7640000D03*
X5585000Y7620000D03*
X5490000Y7975000D03*
X5330000Y7735000D03*
X5490000D03*
Y7815000D03*
X5570000Y8135000D03*
X5730000Y8055000D03*
X5650000D03*
X5733520Y8378520D03*
X5650000Y8375000D03*
X5730000Y8135000D03*
X5650000Y8535000D03*
X5730000D03*
Y8615000D03*
X5490000Y8055000D03*
X5650000Y8455000D03*
Y8135000D03*
X5730000Y8455000D03*
X5570000Y8535000D03*
X5490000Y8135000D03*
X5410000D03*
X5650000Y8295000D03*
X5730000Y8215000D03*
X5650000D03*
X5980000Y7735000D03*
X5890000Y7975000D03*
X5810000D03*
X5985000Y7935000D03*
X5890000Y7815000D03*
X5850000Y7620000D03*
X5810000Y7735000D03*
X6040000Y7855000D03*
X5890000Y7895000D03*
X5930000Y7620000D03*
X6065000Y8015000D03*
X5810000Y7815000D03*
X5770000Y7620000D03*
X6017000Y8427000D03*
X5985000Y8095000D03*
X5810000Y8535000D03*
Y8455000D03*
X5806480Y8131480D03*
X5810000Y8615000D03*
X5970000Y8375000D03*
X5810000Y8215000D03*
X5890000Y8375000D03*
X5980000Y8255000D03*
X5890000Y8215000D03*
X5982510Y8185000D03*
X5970000Y8615000D03*
X5890000D03*
X5810000Y8375000D03*
X5890000Y8055000D03*
Y8455000D03*
X5810000Y8055000D03*
X7220000Y7640000D03*
X6900000Y7480000D03*
X6820000Y7800000D03*
X6720000Y7765000D03*
X6905000Y7795000D03*
X6670000Y7950000D03*
X6820000Y7880000D03*
X7210000Y7840000D03*
X7220000Y7720000D03*
X6900000Y7880000D03*
X6725000Y7595000D03*
X7000000Y7920000D03*
X7200000D03*
X6730000Y7465000D03*
X6725000Y7920000D03*
X6820000Y7640000D03*
X6980000Y7560000D03*
X7220000D03*
X6980000Y7640000D03*
X6820000Y7480000D03*
X7220000D03*
X6820000Y7560000D03*
X6900000D03*
X7220000Y8040000D03*
X6900000D03*
X6820000D03*
X6980000Y8280000D03*
X6740000D03*
X6660000Y8160000D03*
X6820000Y8440000D03*
X6690000Y8445000D03*
X7220000Y8360000D03*
X6900000Y8120000D03*
X6985000Y8540000D03*
X7100000Y8320000D03*
Y8370000D03*
X7220000Y8200000D03*
X7090000Y8155000D03*
X7140000D03*
X6900000Y8600000D03*
Y8440000D03*
Y8280000D03*
X7220000Y8600000D03*
X6820000Y8280000D03*
X6740000Y8440000D03*
Y8040000D03*
X6980000Y8440000D03*
Y8120000D03*
X7220000D03*
X6740000Y8600000D03*
X7380000Y7880000D03*
X7300000Y7720000D03*
Y7560000D03*
X7385000Y7485000D03*
X7380000Y7640000D03*
Y7960000D03*
X7300000Y7640000D03*
Y7480000D03*
Y8120000D03*
X7380000Y8280000D03*
Y8200000D03*
X7300000Y8440000D03*
X7380000Y8040000D03*
X7300000Y8280000D03*
X7380000Y8520000D03*
Y8440000D03*
Y8360000D03*
X7300000Y8200000D03*
Y8040000D03*
Y8360000D03*
X7470000Y8400000D03*
X7380000Y8120000D03*
G54D12*
X7260000Y7440000D03*
X6940000D03*
X6860000D03*
X6780000D03*
X7260000Y7520000D03*
X6940000D03*
X6860000D03*
X7260000Y7600000D03*
X6940000D03*
X6860000D03*
X6780000D03*
X7260000Y7680000D03*
X6940000D03*
X6860000D03*
X7260000Y7760000D03*
X6940000D03*
X6860000D03*
X6780000D03*
X7260000Y7840000D03*
X6940000D03*
X6860000D03*
X7260000Y7920000D03*
X6940000D03*
X6860000D03*
X6780000D03*
X7260000Y8000000D03*
X6940000D03*
X6860000D03*
X6780000D03*
X7260000Y8080000D03*
X6940000D03*
X6860000D03*
X6780000D03*
X7260000Y8160000D03*
X6940000D03*
X6860000D03*
X6780000D03*
X7260000Y8240000D03*
X6940000D03*
X6860000D03*
X6780000D03*
X7260000Y8320000D03*
X6940000D03*
X6860000D03*
X6780000D03*
X7260000Y8400000D03*
X6940000D03*
X6860000D03*
X6780000D03*
X7260000Y8480000D03*
X6940000D03*
X6860000D03*
X6780000D03*
X7260000Y8560000D03*
X6940000D03*
X6860000D03*
X6780000D03*
X7340000Y7440000D03*
X7420000Y7520000D03*
X7340000D03*
Y7600000D03*
X7420000Y7680000D03*
X7340000D03*
Y7760000D03*
X7420000Y7840000D03*
X7340000D03*
X7420000Y7920000D03*
X7340000D03*
X7420000Y8000000D03*
X7340000D03*
X7420000Y8080000D03*
X7340000D03*
X7420000Y8160000D03*
X7340000D03*
X7420000Y8240000D03*
X7340000D03*
X7420000Y8320000D03*
X7340000D03*
X7420000Y8400000D03*
X7340000D03*
X7420000Y8480000D03*
X7340000D03*
X7420000Y8560000D03*
X7340000D03*
G54D13*
G01X5690000Y7855000D02*
X5730000Y7815000D01*
G01X5690000Y7695000D02*
Y7620000D01*
G01X5450000Y7695000D02*
X5468600Y7676400D01*
Y7628600D01*
G01X5530000Y8015000D02*
X5570000Y7975000D01*
G01X5530000Y7775000D02*
X5570000Y7735000D01*
G01X5610000Y7935000D02*
X5650000Y7895000D01*
G01X5610000Y7775000D02*
X5650000Y7735000D01*
G01X5530000Y7935000D02*
X5570000Y7895000D01*
G01X5370000Y7695000D02*
Y7640000D01*
G01X5610000Y7695000D02*
Y7650000D01*
X5640000Y7620000D01*
G01X5370000Y7935000D02*
X5410000Y7895000D01*
G01X5290000Y7855000D02*
X5330000Y7815000D01*
G01X5290000Y7695000D02*
Y7640000D01*
G01X5585000Y7620000D02*
X5530000Y7675000D01*
Y7695000D01*
G01X5450000Y8015000D02*
X5490000Y7975000D01*
G01X5370000Y7775000D02*
X5330000Y7735000D01*
G01X5450000Y7775000D02*
X5490000Y7735000D01*
G01X5450000Y7855000D02*
X5490000Y7815000D01*
G01X5530000Y8175000D02*
X5570000Y8135000D01*
G01X5690000Y8015000D02*
X5730000Y8055000D01*
G01X5610000Y8095000D02*
X5650000Y8055000D01*
G01X5690000Y8335000D02*
X5733520Y8378520D01*
G01X5610000Y8415000D02*
X5650000Y8375000D01*
G01X5690000Y8175000D02*
X5730000Y8135000D01*
G01X5610000Y8575000D02*
X5650000Y8535000D01*
G01X5690000Y8495000D02*
X5730000Y8535000D01*
G01X5770000Y8255000D02*
X5690000D01*
G01X5850000Y7775000D02*
X5890000Y7735000D01*
X5980000D01*
G01X5850000Y8015000D02*
X5890000Y7975000D01*
G01X5770000Y7935000D02*
X5810000Y7975000D01*
G01X5930000Y7935000D02*
X5985000D01*
G01X5850000Y7855000D02*
X5890000Y7815000D01*
G01X5850000Y7695000D02*
Y7620000D01*
G01X5770000Y7775000D02*
X5810000Y7735000D01*
G01X6040000Y7855000D02*
X5930000D01*
G01X5770000Y7695000D02*
Y7620000D01*
G01X6017000Y8427000D02*
X5942000D01*
X5930000Y8415000D01*
G01Y8095000D02*
X5985000D01*
G01X5850000Y8495000D02*
X5810000Y8535000D01*
G01X5770000Y8415000D02*
X5810000Y8455000D01*
G01X5770000Y8095000D02*
X5806480Y8131480D01*
G01X5770000Y8575000D02*
X5810000Y8615000D01*
G01X5930000Y8335000D02*
X5970000Y8375000D01*
G01X5850000Y8255000D02*
X5810000Y8215000D01*
G01X5850000Y8335000D02*
X5890000Y8375000D01*
G01X5930000Y8255000D02*
X5980000D01*
G01X5850000Y8175000D02*
X5890000Y8215000D01*
G01X5930000Y8175000D02*
X5970000D01*
X5980000Y8185000D01*
X5982510D01*
G01X5930000Y8575000D02*
X5970000Y8615000D01*
G01X7260000Y7680000D02*
X7220000Y7640000D01*
G01X6860000Y7440000D02*
X6900000Y7480000D01*
G01X6860000Y7760000D02*
X6820000Y7800000D01*
G01X6780000Y7760000D02*
X6775000Y7765000D01*
X6720000D01*
G01X6940000Y7760000D02*
X6905000Y7795000D01*
G01X6940000Y8000000D02*
X6900000Y8040000D01*
G01X6670000Y7950000D02*
X6700000Y7980000D01*
X6760000D01*
X6780000Y8000000D01*
G01X6860000Y7840000D02*
X6820000Y7880000D01*
G01X7260000Y7840000D02*
X7210000D01*
G01X7260000Y7760000D02*
X7220000Y7720000D01*
G01X6940000Y7840000D02*
X6900000Y7880000D01*
G01X7340000Y7840000D02*
X7300000Y7880000D01*
X7185000D01*
X7155000Y7910000D01*
X7126710D01*
X7123350Y7913350D01*
Y7913360D01*
X7105000Y7931710D01*
Y8140000D01*
X7090000Y8155000D01*
G01X7340000Y7920000D02*
X7300000Y7960000D01*
X7185000D01*
X7155000Y7930000D01*
X7135000D01*
X7125000Y7940000D01*
Y8140000D01*
X7140000Y8155000D01*
G01X6860000Y7680000D02*
X6820000Y7640000D01*
G01X6940000Y7520000D02*
X6980000Y7560000D01*
G01X7260000Y7600000D02*
X7220000Y7560000D01*
G01X6940000Y7680000D02*
X6980000Y7640000D01*
G01X6860000Y7520000D02*
X6820000Y7480000D01*
G01X7260000Y7520000D02*
X7220000Y7480000D01*
G01X6860000Y7600000D02*
X6820000Y7560000D01*
G01X6940000Y7600000D02*
X6900000Y7560000D01*
G01X7260000Y8000000D02*
X7220000Y8040000D01*
G01X6860000Y8080000D02*
X6820000Y8040000D01*
G01X6940000Y8320000D02*
X6980000Y8280000D01*
G01X6780000Y8320000D02*
X6740000Y8280000D01*
G01X6780000Y8160000D02*
X6660000D01*
G01X6860000Y8400000D02*
X6820000Y8440000D01*
G01X6780000Y8480000D02*
X6725000D01*
X6690000Y8445000D01*
G01X7260000Y8320000D02*
X7220000Y8360000D01*
G01X6940000Y8160000D02*
X6900000Y8120000D01*
G01X6940000Y8480000D02*
X6985000Y8525000D01*
Y8540000D01*
G01X7260000Y8480000D02*
X7230000D01*
X7180000Y8430000D01*
Y8360000D01*
X7140000Y8320000D01*
X7100000D01*
G01Y8370000D02*
X7135000D01*
X7160000Y8395000D01*
Y8460000D01*
X7220000Y8520000D01*
X7300000D01*
X7340000Y8560000D01*
G01X7260000Y8160000D02*
X7220000Y8200000D01*
G01X7420000Y8000000D02*
X7380000Y8040000D01*
G01X7420000Y7840000D02*
X7380000Y7880000D01*
G01X7340000Y7760000D02*
X7300000Y7720000D01*
G01X7340000Y7600000D02*
X7300000Y7560000D01*
G01X7340000Y7680000D02*
X7300000Y7640000D01*
G01X7340000Y7520000D02*
X7300000Y7480000D01*
G01X7340000Y8080000D02*
X7300000Y8120000D01*
G01X7420000Y8320000D02*
X7380000Y8280000D01*
G01X7420000Y8160000D02*
X7380000Y8200000D01*
G01X7340000Y8400000D02*
X7300000Y8440000D01*
G01X7340000Y8240000D02*
X7300000Y8280000D01*
G01X7420000Y8480000D02*
X7380000Y8520000D01*
G54D14*
G01X5690000Y7935000D02*
X5730000Y7895000D01*
G01X5690000Y7775000D02*
X5730000Y7735000D01*
G01X5530000Y7855000D02*
X5570000Y7815000D01*
G01X5370000Y7855000D02*
X5330000Y7895000D01*
G01X5610000Y8015000D02*
X5650000Y7975000D01*
G01X5610000Y7855000D02*
X5650000Y7815000D01*
G01X5450000Y7935000D02*
X5490000Y7895000D01*
G01X5690000Y8575000D02*
X5730000Y8615000D01*
G01X5450000Y8095000D02*
X5490000Y8055000D01*
G01X5530000Y8095000D02*
X5490000Y8055000D01*
G01X5690000Y8415000D02*
X5650000Y8455000D01*
G01X5690000Y8095000D02*
X5650000Y8135000D01*
G01X5770000Y8495000D02*
X5730000Y8455000D01*
G01X5610000Y8495000D02*
X5570000Y8535000D01*
G01X5450000Y8175000D02*
X5490000Y8135000D01*
G01X5370000Y8175000D02*
X5410000Y8135000D01*
G01X5610000Y8335000D02*
X5650000Y8295000D01*
G01X5770000Y8175000D02*
X5730000Y8215000D01*
G01X5610000Y8175000D02*
X5650000Y8215000D01*
G01X5850000Y7935000D02*
X5890000Y7895000D01*
G01X5930000Y7695000D02*
Y7620000D01*
G01Y8015000D02*
X6065000D01*
G01X5770000D02*
X5810000Y8055000D01*
G01X5770000Y7855000D02*
X5810000Y7815000D01*
G01X5850000Y8575000D02*
X5890000Y8615000D01*
G01X5850000Y8415000D02*
X5810000Y8375000D01*
G01X5770000Y8335000D02*
X5810000Y8375000D01*
G01X5850000Y8095000D02*
X5890000Y8055000D01*
G01X5930000Y8495000D02*
X5890000Y8455000D01*
G01X6780000Y7600000D02*
X6775000Y7595000D01*
X6725000D01*
G01X6860000Y8000000D02*
X6940000Y7920000D01*
G01D02*
X7000000D01*
G01X7260000D02*
X7200000D01*
G01X6780000Y7440000D02*
X6755000D01*
X6730000Y7465000D01*
G01X6780000Y7920000D02*
X6725000D01*
G01X6940000Y8560000D02*
X6900000Y8600000D01*
G01X6860000Y8480000D02*
X6900000Y8440000D01*
G01X6940000Y8240000D02*
X6900000Y8280000D01*
G01X6860000Y8320000D02*
X6900000Y8280000D01*
G01X6860000Y8160000D02*
X6940000Y8240000D01*
G01X7260000Y8560000D02*
X7220000Y8600000D01*
G01X7260000Y8240000D02*
X7300000Y8200000D01*
G01X6780000Y8240000D02*
X6820000Y8280000D01*
G01X6780000Y8400000D02*
X6740000Y8440000D01*
G01X6780000Y8080000D02*
X6740000Y8040000D01*
G01X6940000Y8400000D02*
X6980000Y8440000D01*
G01X6940000Y8080000D02*
X6980000Y8120000D01*
G01X7260000Y8400000D02*
X7300000Y8360000D01*
G01X7260000Y8080000D02*
X7220000Y8120000D01*
G01X6780000Y8560000D02*
X6740000Y8600000D01*
G01X7420000Y7520000D02*
X7385000Y7485000D01*
G01X7340000Y8000000D02*
X7300000Y8040000D01*
G01X7420000Y7680000D02*
X7380000Y7640000D01*
G01X7420000Y7920000D02*
X7380000Y7960000D01*
G01X7340000Y8480000D02*
X7380000Y8440000D01*
G01X7340000Y8320000D02*
X7380000Y8360000D01*
G01X7340000Y8160000D02*
X7300000Y8200000D01*
G01X7420000Y8400000D02*
X7470000D01*
G01X7420000Y8080000D02*
X7380000Y8120000D01*
M02*
