G04 ================== begin FILE IDENTIFICATION RECORD ==================*
G04 Layout Name:  C:/Armadillo_II_Development_System/Catskills (mx28)/Test_Layouts/China/mx28_289bga_ddr2_test_layout_revB.brd*
G04 Film Name:    TOPSILK*
G04 File Format:  Gerber RS274X*
G04 File Origin:  16.01-s006*
G04 Origin Date:  Wed Oct 27 15:23:07 2010*
G04 *
G04 Layer:  BOARD GEOMETRY/SILKSCREEN_TOP*
G04 Layer:  PACKAGE GEOMETRY/SILKSCREEN_TOP*
G04 *
G04 Offset:    (0.0000 0.0000)*
G04 Mirror:    No*
G04 Mode:      Positive*
G04 Rotation:  0*
G04 FullContactRelief:  No*
G04 UndefLineWidth:     0.0000*
G04 ================== end FILE IDENTIFICATION RECORD ====================*
%FSLAX55Y55*MOMM*%
%IR0*IPPOS*OFA0.00000B0.00000*MIA0B0*SFA1.00000B1.00000*%
%ADD10C,.15*%
%ADD11C,.152*%
G75*
%LPD*%
G75*
G54D10*
G01X4570000Y9055000D02*
X6010000D01*
Y7615000D01*
X4570000D01*
Y9055000D01*
G01X4490000Y9015000D02*
G03I0J-40000D01*
G54D11*
G01X6585760Y7965500D02*
Y8044200D01*
G01X6626640D02*
Y7965500D01*
G01Y8004850D02*
X6585760D01*
G01X6586730Y7901240D02*
X6591600Y7893370D01*
X6597440Y7888120D01*
X6604250Y7885500D01*
X6612040Y7888120D01*
X6617880Y7893370D01*
X6623720Y7901240D01*
X6625670Y7911730D01*
Y7964200D01*
G01X6584790Y7805500D02*
Y7884200D01*
G01X6621770D02*
X6584790Y7835670D01*
G01X6627610Y7805500D02*
X6601330Y7857970D01*
G01X6586730Y7804200D02*
Y7725500D01*
X6625670D01*
G01X6580890Y7645500D02*
Y7724200D01*
X6606200Y7658620D01*
X6631510Y7724200D01*
Y7645500D01*
G01X6583810Y7565500D02*
Y7644200D01*
X6628590Y7565500D01*
Y7644200D01*
G01X6586730Y7485500D02*
Y7564200D01*
X6610090D01*
X6617880Y7560260D01*
X6623720Y7551080D01*
X6625670Y7540590D01*
X6623720Y7530100D01*
X6618850Y7522230D01*
X6610090Y7518290D01*
X6586730D01*
G01Y7405500D02*
Y7484200D01*
X6611070D01*
X6618850Y7480260D01*
X6623720Y7475020D01*
X6625670Y7464520D01*
X6623720Y7454030D01*
X6617880Y7447470D01*
X6611070Y7443540D01*
X6586730D01*
G01X6611070D02*
X6625670Y7405500D01*
G01X6677200Y8584300D02*
X6740700Y8647800D01*
X7522800D01*
Y7352200D01*
X6677200D01*
Y8584300D01*
G01X6581870Y8525500D02*
X6606200Y8604200D01*
X6630530Y8525500D01*
G01X6621770Y8553040D02*
X6590630D01*
G01X6613990Y8487470D02*
X6617880Y8491410D01*
X6620800Y8497970D01*
X6622750Y8507150D01*
X6620800Y8515020D01*
X6616910Y8520260D01*
X6610090Y8524200D01*
X6583810D01*
Y8445500D01*
X6615930D01*
X6622750Y8450750D01*
X6626640Y8458620D01*
X6628590Y8467800D01*
X6626640Y8476980D01*
X6620800Y8484850D01*
X6613990Y8487470D01*
X6583810D01*
G01X6627610Y8437640D02*
X6621770Y8441580D01*
X6614960Y8444200D01*
X6607170D01*
X6598410Y8440260D01*
X6591600Y8433710D01*
X6586730Y8425840D01*
X6582840Y8412720D01*
X6581870Y8400910D01*
X6583810Y8389110D01*
X6586730Y8381240D01*
X6592570Y8373370D01*
X6599390Y8368120D01*
X6606200Y8365500D01*
X6613010D01*
X6619830Y8368120D01*
X6625670Y8372060D01*
X6630530Y8377300D01*
G01X6584790Y8285500D02*
Y8364200D01*
X6604250D01*
X6612040Y8360260D01*
X6617880Y8355020D01*
X6622750Y8347150D01*
X6626640Y8337970D01*
X6627610Y8324850D01*
X6626640Y8311730D01*
X6622750Y8302550D01*
X6617880Y8294680D01*
X6612040Y8289430D01*
X6604250Y8285500D01*
X6584790D01*
G01X6625670Y8205500D02*
X6586730D01*
Y8284200D01*
X6625670D01*
G01X6610090Y8246160D02*
X6586730D01*
G01X6587710Y8125500D02*
Y8204200D01*
X6624690D01*
G01X6611070Y8166160D02*
X6587710D01*
G01X6612040Y8084850D02*
X6631510D01*
Y8061240D01*
X6625670Y8053370D01*
X6618850Y8048120D01*
X6609120Y8045500D01*
X6599390Y8048120D01*
X6592570Y8053370D01*
X6586730Y8061240D01*
X6582840Y8070420D01*
X6580890Y8080910D01*
Y8090100D01*
X6582840Y8097970D01*
X6586730Y8107150D01*
X6592570Y8115020D01*
X6598410Y8120260D01*
X6606200Y8124200D01*
X6613010D01*
X6620800Y8121580D01*
X6626640Y8116330D01*
G01X7258050Y8700000D02*
X7260000Y8717050D01*
X7262920Y8731480D01*
X7266810Y8744600D01*
X7271680Y8759020D01*
X7279470Y8778700D01*
X7240530D01*
G01X6918590Y8715740D02*
X6924430Y8706560D01*
X6932210Y8701310D01*
X6940970Y8700000D01*
X6948760Y8701310D01*
X6956550Y8707870D01*
X6961410Y8715740D01*
X6962390Y8723610D01*
X6960440Y8732790D01*
X6953630Y8739350D01*
X6946810Y8741970D01*
X6938050D01*
G01X6946810D02*
X6952650Y8745910D01*
X6957520Y8752470D01*
X6959470Y8760340D01*
X6957520Y8768210D01*
X6952650Y8774760D01*
X6943890Y8778700D01*
X6935130Y8777390D01*
X6926370Y8772140D01*
G01X6841510Y8765580D02*
X6847350Y8773450D01*
X6854160Y8777390D01*
X6861950Y8778700D01*
X6871680Y8776080D01*
X6878490Y8769520D01*
X6880440Y8761650D01*
X6879470Y8753780D01*
X6875570Y8747220D01*
X6856110Y8734100D01*
X6847350Y8724920D01*
X6841510Y8711800D01*
X6839560Y8700000D01*
X6880440D01*
G01X6780000D02*
Y8778700D01*
X6768320Y8762960D01*
G01Y8700000D02*
X6791680D01*
G01X7403450Y8709180D02*
X7410270Y8702620D01*
X7418050Y8700000D01*
X7425840Y8702620D01*
X7432650Y8710490D01*
X7437520Y8722300D01*
X7439470Y8734100D01*
Y8748530D01*
X7437520Y8760340D01*
X7432650Y8770830D01*
X7426810Y8776080D01*
X7420000Y8778700D01*
X7412210Y8776080D01*
X7406370Y8770830D01*
X7402480Y8762960D01*
X7400530Y8752470D01*
X7402480Y8743290D01*
X7407350Y8734100D01*
X7413190Y8728860D01*
X7420000Y8727540D01*
X7427790Y8730170D01*
X7433630Y8736730D01*
X7439470Y8748530D01*
G01X7340000Y8700000D02*
X7346810Y8701310D01*
X7354600Y8705250D01*
X7359470Y8711800D01*
X7361410Y8720990D01*
X7359470Y8730170D01*
X7353630Y8738040D01*
X7344870Y8741970D01*
X7335130D01*
X7329290Y8744600D01*
X7324430Y8751150D01*
X7322480Y8760340D01*
X7325400Y8769520D01*
X7332210Y8776080D01*
X7340000Y8778700D01*
X7347790Y8776080D01*
X7354600Y8769520D01*
X7357520Y8760340D01*
X7355570Y8751150D01*
X7350710Y8744600D01*
X7344870Y8741970D01*
X7335130D01*
X7326370Y8738040D01*
X7320530Y8730170D01*
X7318590Y8720990D01*
X7320530Y8711800D01*
X7325400Y8705250D01*
X7333190Y8701310D01*
X7340000Y8700000D01*
M02*
