G04 ================== begin FILE IDENTIFICATION RECORD ==================*
G04 Layout Name:  Z:/Documentation/Layout_Guidelines/MX28 Layout Guidelines/Example_Layouts/MX283_2Layer_Escape_Routing_Example/Layout/mx283_2Layer_escape_routing_example.brd*
G04 Film Name:    BOTTOM*
G04 File Format:  Gerber RS274X*
G04 File Origin:  16.01-s006*
G04 Origin Date:  Wed Oct 27 16:14:02 2010*
G04 *
G04 Layer:  ETCH/BOTTOM*
G04 Layer:  PIN/BOTTOM*
G04 Layer:  VIA CLASS/BOTTOM*
G04 *
G04 Offset:    (0.0000 0.0000)*
G04 Mirror:    No*
G04 Mode:      Positive*
G04 Rotation:  0*
G04 FullContactRelief:  No*
G04 UndefLineWidth:     0.0000*
G04 ================== end FILE IDENTIFICATION RECORD ====================*
%FSLAX55Y55*MOIN*%
%IR0*IPPOS*OFA0.00000B0.00000*MIA0B0*SFA1.00000B1.00000*%
%ADD10C,.015748*%
%ADD11C,.01*%
%ADD12C,.004*%
%ADD13C,.003937*%
G75*
%LPD*%
G75*
G54D10*
X180647Y302953D03*
X191000Y310800D03*
X194100Y314000D03*
X190900D03*
X194100Y317100D03*
X190900D03*
Y320300D03*
X187800Y317100D03*
X190900Y323400D03*
X187800Y320200D03*
X191000Y326500D03*
X187800Y323400D03*
Y332800D03*
X194100Y336000D03*
X190900Y332800D03*
X191000Y339000D03*
X194100Y339200D03*
X194000Y345500D03*
X194045Y348544D03*
X191000Y348500D03*
X180454Y353346D03*
X203750Y307750D03*
X200400Y307800D03*
X197200Y307600D03*
X203600Y310800D03*
X200400Y310900D03*
X197200Y310800D03*
X203500Y314000D03*
X200500D03*
X197200D03*
X225591Y307677D03*
X224016Y300000D03*
X215299Y300339D03*
X219291Y313976D03*
Y304528D03*
X222441Y310827D03*
Y304528D03*
X219291Y310827D03*
X211417Y300787D03*
X225591Y310827D03*
Y304528D03*
X219291Y307677D03*
X209843Y310827D03*
X222441Y313976D03*
Y307677D03*
X216142Y310827D03*
X222047Y300000D03*
X212992Y310827D03*
X209843Y307677D03*
X208268Y300787D03*
X219882Y300000D03*
X216142Y313976D03*
X209843Y304528D03*
X216142D03*
Y307677D03*
X197300Y317200D03*
X213000Y317100D03*
X206700Y320300D03*
X200400Y323400D03*
X219291Y320276D03*
X209800Y323500D03*
X203600Y326500D03*
X200400Y326600D03*
X219300Y323400D03*
X216100Y323500D03*
X212900D03*
X209800Y326600D03*
X206700D03*
X200400Y329700D03*
X197300D03*
X219300Y326600D03*
X216100D03*
X213000Y326500D03*
X209800Y329800D03*
X206700Y329700D03*
X197200Y332900D03*
X219300Y329700D03*
X216100D03*
X213000D03*
X209800Y332900D03*
X206700Y332800D03*
X200400Y332900D03*
X197300Y336000D03*
X219300Y332900D03*
X216100D03*
X213000D03*
X209800Y336100D03*
X206540Y336045D03*
X200400Y336100D03*
X216200Y339100D03*
Y336000D03*
X213000D03*
X207000Y339500D03*
X203600Y339200D03*
X200400D03*
X197300D03*
X225600Y342300D03*
X222500Y339200D03*
X219300D03*
X216100Y342300D03*
X210002Y339499D03*
X209900Y345500D03*
X203500D03*
X200400Y342400D03*
X197200Y345500D03*
X222500Y342400D03*
X219300Y342300D03*
X213000Y345500D03*
X210000Y342500D03*
X206700Y345400D03*
X219300Y345500D03*
X225591Y317126D03*
X222441D03*
X225729Y329863D03*
X222441Y329724D03*
X225591Y320276D03*
X222441Y336024D03*
X225591D03*
Y339173D03*
X222441Y332874D03*
Y320276D03*
X216200Y317200D03*
X225591Y332874D03*
X219291Y336024D03*
X216142Y320276D03*
X212992D03*
X222441Y326575D03*
X225591Y323425D03*
X222441D03*
X219300Y348553D03*
X197500Y348500D03*
X225700D03*
X222400Y351700D03*
X216200Y348600D03*
X213000Y348700D03*
X203306Y351680D03*
X225600Y351800D03*
X219300D03*
X213000D03*
X208268Y355768D03*
X203500Y355000D03*
X235433Y304528D03*
X231890Y313976D03*
X228740D03*
X235630Y312402D03*
X231890Y307677D03*
X230315Y300000D03*
X228740Y304528D03*
X237795Y309252D03*
X231890Y310827D03*
X233465Y300000D03*
X238780Y315551D03*
X228740Y307677D03*
X227165Y300000D03*
X236890Y331772D03*
X235630Y318701D03*
X228740Y336024D03*
Y332874D03*
X228602Y320137D03*
X228740Y339173D03*
X235039Y329724D03*
X228740Y323425D03*
X231890Y329724D03*
X235433Y325000D03*
X231890Y323425D03*
X235532Y322244D03*
X236500Y338500D03*
X231890Y339173D03*
X228740Y329724D03*
X231890Y317126D03*
Y332874D03*
X228740Y317126D03*
X228800Y348600D03*
X231900D03*
Y351800D03*
X235000Y355000D03*
X284252Y300787D03*
X271654Y294488D03*
X268504Y307087D03*
X264567Y305709D03*
X271850Y306890D03*
X262598Y312992D03*
X268504Y310236D03*
X283858Y308661D03*
X284252Y303937D03*
X271654Y310236D03*
X264764Y299016D03*
X275591Y311811D03*
X283465D03*
X264961Y293898D03*
X264764Y311811D03*
X268504Y300787D03*
X274803Y297638D03*
X284252D03*
X274803Y300787D03*
X268504Y294488D03*
X284252D03*
X268504Y297638D03*
X271654D03*
X284252Y316535D03*
X271654D03*
X268504D03*
X274803Y325984D03*
X265354D03*
X262205Y321260D03*
X268504Y332283D03*
X263386Y332480D03*
X284252Y329134D03*
X271654Y319685D03*
X275000Y336220D03*
X279528Y327559D03*
Y329528D03*
X284252Y322835D03*
X279134Y321063D03*
X281102D03*
X271654Y338583D03*
Y332283D03*
Y325984D03*
X284252Y338583D03*
X268504Y325984D03*
X265354Y332283D03*
Y316535D03*
X274803Y332283D03*
Y319685D03*
X284252D03*
X265354Y338583D03*
X290551Y310236D03*
X287402Y303937D03*
Y297638D03*
X290748Y294685D03*
X290551Y300787D03*
Y313386D03*
X287402Y300787D03*
Y294488D03*
Y319685D03*
X290551Y325984D03*
Y322835D03*
X287402Y332283D03*
X290551Y316535D03*
X287402Y325984D03*
X290551Y335433D03*
Y332283D03*
Y329134D03*
X287402Y322835D03*
Y316535D03*
Y329134D03*
X294094Y330709D03*
X290551Y319685D03*
G54D11*
G01X233200Y377800D02*
Y354400D01*
X231900Y353100D01*
Y351800D01*
G54D12*
G01X191000Y310800D02*
X190585Y310385D01*
X188700Y308500D01*
X160300D01*
G01X194100Y314000D02*
X194021Y313921D01*
Y313248D01*
X193500Y312727D01*
Y311000D01*
X189000Y306500D01*
X160500D01*
G01X161000Y311500D02*
X188000D01*
X190500Y314000D01*
X190900D01*
G01X160770Y310000D02*
X188000D01*
X190287Y312287D01*
X192000D01*
X192500Y312787D01*
Y315000D01*
X192987Y315487D01*
X195487D01*
X197200Y317200D01*
X197300D01*
G01X161000Y313000D02*
X161123D01*
X161127Y312996D01*
X187496D01*
X190113Y315613D01*
X191516D01*
X192387Y316484D01*
Y317887D01*
X197900Y323400D01*
X200400D01*
G01X161500Y315000D02*
X187804D01*
X189287Y316484D01*
Y317591D01*
X190284Y318587D01*
X191291D01*
X197816Y325113D01*
X201016D01*
X202404Y326500D01*
X203600D01*
G01X160500Y318587D02*
X188587D01*
X190300Y320300D01*
X190900D01*
G01X187800Y317100D02*
X160600D01*
G01X160552Y321687D02*
X188687D01*
X190400Y323400D01*
X190900D01*
G01X187800Y320200D02*
X187500Y320500D01*
X160700D01*
G01X160500Y325000D02*
X194500D01*
X196100Y326600D01*
X200400D01*
G01X160500Y326500D02*
X191000D01*
G01X187800Y323400D02*
X160600D01*
G01X160500Y328000D02*
X198500D01*
X200200Y329700D01*
X200400D01*
G01X160500Y329000D02*
X196600D01*
X197300Y329700D01*
G01X160500Y331000D02*
X195000D01*
X196900Y332900D01*
X197200D01*
G01X160500Y330000D02*
X195496D01*
X196684Y331187D01*
X198687D01*
X200400Y332900D01*
G01X160500Y335500D02*
X192000D01*
X193500Y334000D01*
X194500D01*
X196500Y336000D01*
X197300D01*
G01X194100D02*
X193600Y336500D01*
X161000D01*
G01X160000Y334287D02*
X191516D01*
X192804Y333000D01*
X195000D01*
X196500Y334500D01*
X198500D01*
X200100Y336100D01*
X200400D01*
G01X159500Y339000D02*
X191000D01*
G01X161000Y337513D02*
X191616D01*
X191691Y337587D01*
X205587D01*
X207000Y339000D01*
Y339500D01*
G01X160000Y342500D02*
X198000D01*
X199813Y340687D01*
X201016D01*
X202504Y339200D01*
X203600D01*
G01X159552Y341500D02*
X197104D01*
X199404Y339200D01*
X200400D01*
G01X160500Y343500D02*
X199300D01*
X200400Y342400D01*
G01X195000Y275000D02*
Y308000D01*
X197200Y310200D01*
Y310800D01*
G01X193500Y275000D02*
Y308000D01*
X195500Y310000D01*
Y311500D01*
X196500Y312500D01*
X199000D01*
X200500Y314000D01*
G01X197200D02*
X196313D01*
X194500Y312187D01*
Y310500D01*
X192000Y308000D01*
Y275000D01*
G01X192500Y378500D02*
Y347000D01*
X194000Y345500D01*
G01X194045Y378500D02*
Y348544D01*
G01X191000Y378500D02*
Y348500D01*
G01X203750Y307750D02*
X203000Y307000D01*
Y275250D01*
G01X200400Y307800D02*
Y306175D01*
X200500Y306075D01*
Y275100D01*
G01X197200Y307600D02*
Y275200D01*
X197000Y275000D01*
G01X201887D02*
Y307991D01*
X203600Y309704D01*
Y310800D01*
G01X198687Y275087D02*
Y308191D01*
X200400Y309904D01*
Y310900D01*
G01X203500Y314000D02*
X204500Y313000D01*
Y312004D01*
X205087Y311416D01*
Y308516D01*
X205237Y308366D01*
Y307134D01*
X204500Y306396D01*
Y275000D01*
G01X206700Y320300D02*
X206000Y319600D01*
Y308876D01*
X206137Y308739D01*
Y306761D01*
X206000Y306624D01*
Y275000D01*
G01X254000Y355500D02*
X240500Y342000D01*
X228000D01*
X226661Y340661D01*
X224974D01*
X223514Y339200D01*
X222500D01*
G01X252000Y356500D02*
X239400Y343900D01*
X225097D01*
X224113Y342916D01*
Y341909D01*
X223116Y340913D01*
X221913D01*
X220200Y339200D01*
X219300D01*
G01X249000Y358000D02*
X237600Y346600D01*
X223324D01*
X220511Y343787D01*
X218684D01*
X217196Y342300D01*
X216100D01*
G01X199000Y378500D02*
Y347896D01*
X205896Y341000D01*
X208500D01*
X210001Y339499D01*
X210002D01*
G01X251000Y357000D02*
X238800Y344800D01*
X224724D01*
X222500Y342576D01*
Y342400D01*
G01X250000Y357500D02*
X238200Y345700D01*
X223700D01*
X221887Y343887D01*
X221884D01*
X220296Y342300D01*
X219300D01*
G01X210000Y342500D02*
X206000D01*
X204987Y343513D01*
Y346513D01*
X201819Y349681D01*
Y379000D01*
G01X209900Y345500D02*
X209000D01*
X208000Y346500D01*
Y349500D01*
X206000Y351500D01*
Y378000D01*
G01X200500Y378500D02*
Y348500D01*
X203500Y345500D01*
G01X196000Y378500D02*
Y346400D01*
X196900Y345500D01*
X197200D01*
G01X224113Y378000D02*
Y351309D01*
X221356Y348553D01*
X219300D01*
G01X215500Y378000D02*
Y350500D01*
X214487Y349487D01*
Y348084D01*
X213000Y346596D01*
Y345500D01*
G01X205000Y378000D02*
Y350500D01*
X206700Y348800D01*
Y345400D01*
G01X197500Y348500D02*
Y378500D01*
G01X222400Y351700D02*
Y377900D01*
G01X214487Y378230D02*
Y351184D01*
X213000Y349696D01*
Y348700D01*
G01X253000Y356000D02*
X240000Y343000D01*
X226500D01*
X225800Y342300D01*
X225600D01*
G01X228740Y339173D02*
X230913Y337000D01*
X270087D01*
X270866Y336220D01*
G01X236500Y338500D02*
X262500D01*
X264070Y340070D01*
X285914D01*
X290551Y335433D01*
G01X228500Y378000D02*
Y349000D01*
X228800Y348700D01*
Y348600D01*
G01X227087Y377805D02*
Y351184D01*
X225700Y349796D01*
Y348500D01*
G01X225600Y351800D02*
Y377900D01*
G54D13*
G01X284252Y300787D02*
X282480D01*
X280906Y302362D01*
X267821D01*
X266640Y301181D01*
X240613D01*
X236480Y297047D01*
X226968D01*
X224016Y300000D01*
G01X215299Y300339D02*
Y296517D01*
X217719Y294097D01*
X219493Y292323D01*
X269488D01*
X271654Y294488D01*
G01X219291Y313976D02*
X220866Y312402D01*
Y304134D01*
X222047Y302953D01*
X236786D01*
X239542Y305709D01*
X264567D01*
G01X219291Y304528D02*
X221654Y302165D01*
X237113D01*
X239278Y304331D01*
X265335D01*
X266516Y305512D01*
X270472D01*
X271850Y306890D01*
G01X262598Y312992D02*
X262008Y313583D01*
X240987D01*
X239019Y311614D01*
X236791D01*
X234429Y309252D01*
X224016D01*
X222441Y310827D01*
G01X268504Y310236D02*
X267649D01*
X266074Y308661D01*
X239154D01*
X238366Y307874D01*
X235279D01*
X233507Y306102D01*
X224016D01*
X222441Y304528D01*
G01X219291Y310827D02*
X217913Y309449D01*
Y303543D01*
X220079Y301378D01*
X237439D01*
X239604Y303543D01*
X265661D01*
X266842Y304724D01*
X270799D01*
X271389Y305315D01*
X286024D01*
X287402Y303937D01*
G01X211417Y300787D02*
Y295079D01*
X216535Y289961D01*
X271913D01*
X278015Y296063D01*
X285827D01*
X287402Y297638D01*
G01X222047Y300000D02*
Y298819D01*
X224606Y296260D01*
X236806D01*
X240940Y300394D01*
X268110D01*
X268504Y300787D01*
G01X212992Y310827D02*
Y303481D01*
X213921Y302552D01*
Y296315D01*
X218701Y291535D01*
X271260D01*
X274803Y295079D01*
Y297638D01*
G01X209843Y307677D02*
X212205Y305315D01*
Y303155D01*
X213134Y302226D01*
Y295724D01*
X218110Y290748D01*
X271586D01*
X278476Y297638D01*
X284252D01*
G01X208268Y300787D02*
Y295079D01*
X214961Y288386D01*
X272565D01*
X277290Y293110D01*
X286024D01*
X287402Y294488D01*
G01X219882Y300000D02*
Y297835D01*
X222244Y295472D01*
X237132D01*
X239298Y297638D01*
X266142D01*
X267913Y299409D01*
X273425D01*
X274803Y300787D01*
G01X268504Y294488D02*
X267717Y295276D01*
X240277D01*
X238111Y293110D01*
X219820D01*
X216732Y296198D01*
Y300855D01*
X213976Y303611D01*
Y306626D01*
X214567Y307216D01*
Y312402D01*
X216142Y313976D01*
G01X209843Y304528D02*
Y294882D01*
X215551Y289173D01*
X272239D01*
X277554Y294488D01*
X284252D01*
G01X216142Y304528D02*
Y303937D01*
X218307Y301772D01*
Y296850D01*
X220472Y294685D01*
X237459D01*
X239624Y296850D01*
X267717D01*
X268504Y297638D01*
G01X216142Y307677D02*
X214764Y306299D01*
Y303937D01*
X217520Y301181D01*
Y296524D01*
X220146Y293898D01*
X237785D01*
X239950Y296063D01*
X270079D01*
X271654Y297638D01*
G01X268504Y316535D02*
X266732Y318307D01*
X264562D01*
X263578Y317323D01*
X260438D01*
X259060Y318701D01*
X238693D01*
X235543Y315551D01*
X224016D01*
X222441Y317126D01*
G01X265354Y325984D02*
X263780Y327559D01*
X224606D01*
X222441Y329724D01*
G01X263386Y332480D02*
X262717Y333150D01*
X234114D01*
X232461Y331496D01*
X225020D01*
X224213Y332303D01*
Y334252D01*
X222441Y336024D01*
G01X235433Y304528D02*
X237247D01*
X239806Y307087D01*
X268504D01*
G01X231890Y313976D02*
X232480D01*
X233268Y314764D01*
X235869D01*
X238035Y316929D01*
X239764D01*
X240354Y316339D01*
X263602D01*
X264980Y314961D01*
X272244D01*
X274606Y317323D01*
X280641D01*
X281429Y318110D01*
X284626D01*
X286201Y319685D01*
X287402D01*
G01X228740Y313976D02*
X230315Y312402D01*
X232264D01*
X233839Y313976D01*
X239154D01*
X240728Y315551D01*
X263276D01*
X264654Y314173D01*
X272570D01*
X274933Y316535D01*
X284252D01*
G01X235630Y312402D02*
X238693D01*
X241055Y314764D01*
X262950D01*
X264328Y313386D01*
X272897D01*
X274472Y314961D01*
X288976D01*
X290551Y316535D01*
G01X231890Y307677D02*
X233968D01*
X236921Y310630D01*
X239547D01*
X239941Y310236D01*
X265422D01*
X267587Y312402D01*
X272964D01*
X276704Y308661D01*
X283858D01*
G01X284252Y303937D02*
X267168D01*
X265987Y302756D01*
X239961D01*
X235827Y298622D01*
X231693D01*
X230315Y300000D01*
G01X271654Y310236D02*
X270276Y308858D01*
X267385D01*
X266401Y307874D01*
X239480D01*
X238693Y307087D01*
X235605D01*
X233046Y304528D01*
X228740D01*
G01X237795Y309252D02*
X237992Y309449D01*
X265748D01*
X267913Y311614D01*
X272638D01*
X276968Y307283D01*
X287598D01*
X290551Y310236D01*
G01X287402Y300787D02*
X285827Y302362D01*
X283661D01*
X282874Y303150D01*
X267495D01*
X266314Y301968D01*
X240287D01*
X236153Y297835D01*
X229331D01*
X227165Y300000D01*
G01X225591Y317126D02*
X227165Y318701D01*
X232677D01*
X234055Y317323D01*
X236201D01*
X238366Y319488D01*
X259387D01*
X260765Y318110D01*
X263251D01*
X264629Y319488D01*
X268701D01*
X271654Y316535D01*
G01X274803Y325984D02*
X272441Y328346D01*
X227246D01*
X225729Y329863D01*
G01X290551Y325984D02*
X288780Y327756D01*
X283681D01*
X280532Y330906D01*
X237756D01*
X236890Y331772D01*
G01X262205Y321260D02*
X261614Y321850D01*
X237205D01*
X236220Y320866D01*
X234468D01*
X233484Y321850D01*
X227165D01*
X225591Y320276D01*
G01X235630Y318701D02*
X236283D01*
X237857Y320276D01*
X259713D01*
X261091Y318898D01*
X262925D01*
X264303Y320276D01*
X269114D01*
X271280Y318110D01*
X280315D01*
X283465Y321260D01*
X288976D01*
X290551Y322835D01*
G01X228740Y336024D02*
X269114D01*
X270295Y334843D01*
X284843D01*
X287402Y332283D01*
G01X228740Y332874D02*
X230118Y334252D01*
X266535D01*
X268504Y332283D01*
G01X225591Y336024D02*
X226968Y334646D01*
X229311D01*
X229705Y335039D01*
X268985D01*
X269969Y334055D01*
X279331D01*
X284252Y329134D01*
G01X271654Y319685D02*
X270276Y321063D01*
X263976D01*
X262598Y319685D01*
X261417D01*
X260039Y321063D01*
X237531D01*
X236547Y320079D01*
X228660D01*
X228602Y320137D01*
G01X270866Y336220D02*
X275000D01*
G01X235039Y329724D02*
X235433Y329331D01*
X277756D01*
X279528Y327559D01*
G01X228740Y323425D02*
X231693Y326378D01*
X263012D01*
X264783Y324606D01*
X275591D01*
X276968Y325984D01*
X287402D01*
G01X279528Y329528D02*
X278937Y330118D01*
X236594D01*
X235610Y331102D01*
X233268D01*
X231890Y329724D01*
G01X284252Y322835D02*
X283268Y323819D01*
X264457D01*
X263276Y325000D01*
X235433D01*
G01X279134Y321063D02*
X278346Y320276D01*
X277295D01*
X274933Y322638D01*
X263976D01*
X262992Y323622D01*
X234961D01*
X234764Y323425D01*
X231890D01*
G01X281102Y321063D02*
X278937Y318898D01*
X277559D01*
X274606Y321850D01*
X263650D01*
X262863Y322638D01*
X235926D01*
X235532Y322244D01*
M02*
