G04 ================== begin FILE IDENTIFICATION RECORD ==================*
G04 Layout Name:  Z:/Documentation/Layout_Guidelines/MX28 Layout Guidelines/Example_Layouts/MX283_2Layer_Escape_Routing_Example/Layout/mx283_2Layer_escape_routing_example.brd*
G04 Film Name:    TOP*
G04 File Format:  Gerber RS274X*
G04 File Origin:  16.01-s006*
G04 Origin Date:  Wed Oct 27 16:14:02 2010*
G04 *
G04 Layer:  ETCH/TOP*
G04 Layer:  PIN/TOP*
G04 Layer:  VIA CLASS/TOP*
G04 *
G04 Offset:    (0.0000 0.0000)*
G04 Mirror:    No*
G04 Mode:      Positive*
G04 Rotation:  0*
G04 FullContactRelief:  No*
G04 UndefLineWidth:     0.0000*
G04 ================== end FILE IDENTIFICATION RECORD ====================*
%FSLAX55Y55*MOIN*%
%IR0*IPPOS*OFA0.00000B0.00000*MIA0B0*SFA1.00000B1.00000*%
%ADD12C,.015*%
%ADD10C,.017*%
%ADD11C,.015748*%
%ADD13C,.01*%
%ADD14C,.011811*%
%ADD15C,.004*%
%ADD16C,.003937*%
G75*
%LPD*%
G75*
G54D10*
X195669Y302953D03*
X192520D03*
X189370D03*
X186220D03*
X183071D03*
X195669Y306102D03*
X192520D03*
X189370D03*
X186220D03*
X183071D03*
X195669Y309252D03*
X192520D03*
X189370D03*
X186220D03*
X183071D03*
X195669Y312402D03*
X192520D03*
X189370D03*
X186220D03*
X183071D03*
X195669Y315551D03*
X192520D03*
X189370D03*
X186220D03*
X183071D03*
X195669Y318701D03*
X192520D03*
X189370D03*
X186220D03*
X183071D03*
X195669Y321850D03*
X192520D03*
X189370D03*
X186220D03*
X183071D03*
X195669Y325000D03*
X192520D03*
X189370D03*
X186220D03*
X183071D03*
X195669Y328150D03*
X192520D03*
X189370D03*
X186220D03*
X183071D03*
X195669Y331299D03*
X192520D03*
X189370D03*
X186220D03*
X183071D03*
X195669Y334449D03*
X192520D03*
X189370D03*
X186220D03*
X183071D03*
X195669Y337598D03*
X192520D03*
X189370D03*
X186220D03*
X183071D03*
X195669Y340748D03*
X192520D03*
X189370D03*
X186220D03*
X183071D03*
X195669Y343898D03*
X192520D03*
X189370D03*
X186220D03*
X183071D03*
X195669Y347047D03*
X192520D03*
X189370D03*
X186220D03*
X183071D03*
X195669Y350197D03*
X192520D03*
X189370D03*
X186220D03*
X183071D03*
X195669Y353346D03*
X192520D03*
X189370D03*
X186220D03*
X183071D03*
X224016Y302953D03*
X220866D03*
X217717D03*
X214567D03*
X211417D03*
X208268D03*
X205118D03*
X201969D03*
X198819D03*
X224016Y306102D03*
X220866D03*
X217717D03*
X214567D03*
X211417D03*
X208268D03*
X205118D03*
X201969D03*
X198819D03*
X224016Y309252D03*
X220866D03*
X217717D03*
X214567D03*
X211417D03*
X208268D03*
X205118D03*
X201969D03*
X198819D03*
X224016Y312402D03*
X220866D03*
X217717D03*
X214567D03*
X211417D03*
X208268D03*
X205118D03*
X201969D03*
X198819D03*
X224016Y315551D03*
X220866D03*
X217717D03*
X214567D03*
X211417D03*
X208268D03*
X205118D03*
X201969D03*
X198819D03*
X224016Y318701D03*
X220866D03*
X217717D03*
X214567D03*
X211417D03*
X208268D03*
X205118D03*
X201969D03*
X198819D03*
X224016Y321850D03*
X220866D03*
X217717D03*
X214567D03*
X211417D03*
X208268D03*
X205118D03*
X201969D03*
X198819D03*
X224016Y325000D03*
X220866D03*
X217717D03*
X214567D03*
X211417D03*
X208268D03*
X205118D03*
X201969D03*
X198819D03*
X224016Y328150D03*
X220866D03*
X217717D03*
X214567D03*
X211417D03*
X208268D03*
X205118D03*
X201969D03*
X198819D03*
X224016Y331299D03*
X220866D03*
X217717D03*
X214567D03*
X211417D03*
X208268D03*
X205118D03*
X201969D03*
X198819D03*
X224016Y334449D03*
X220866D03*
X217717D03*
X214567D03*
X211417D03*
X208268D03*
X205118D03*
X201969D03*
X198819D03*
X224016Y337598D03*
X220866D03*
X217717D03*
X214567D03*
X211417D03*
X208268D03*
X205118D03*
X201969D03*
X198819D03*
X224016Y340748D03*
X220866D03*
X217717D03*
X214567D03*
X211417D03*
X208268D03*
X205118D03*
X201969D03*
X198819D03*
X224016Y343898D03*
X220866D03*
X217717D03*
X214567D03*
X211417D03*
X208268D03*
X205118D03*
X201969D03*
X198819D03*
X224016Y347047D03*
X220866D03*
X217717D03*
X214567D03*
X211417D03*
X208268D03*
X205118D03*
X201969D03*
X198819D03*
X224016Y350197D03*
X220866D03*
X217717D03*
X214567D03*
X211417D03*
X208268D03*
X205118D03*
X201969D03*
X198819D03*
X224016Y353346D03*
X220866D03*
X217717D03*
X214567D03*
X211417D03*
X208268D03*
X205118D03*
X201969D03*
X198819D03*
X233465Y302953D03*
X230315D03*
X227165D03*
X233465Y306102D03*
X230315D03*
X227165D03*
X233465Y309252D03*
X230315D03*
X227165D03*
X233465Y312402D03*
X230315D03*
X227165D03*
X233465Y315551D03*
X230315D03*
X227165D03*
X233465Y318701D03*
X230315D03*
X227165D03*
X233465Y321850D03*
X230315D03*
X227165D03*
X233465Y325000D03*
X230315D03*
X227165D03*
X233465Y328150D03*
X230315D03*
X227165D03*
X233465Y331299D03*
X230315D03*
X227165D03*
X233465Y334449D03*
X230315D03*
X227165D03*
X233465Y337598D03*
X230315D03*
X227165D03*
X233465Y340748D03*
X230315D03*
X227165D03*
X233465Y343898D03*
X230315D03*
X227165D03*
X233465Y347047D03*
X230315D03*
X227165D03*
X233465Y350197D03*
X230315D03*
X227165D03*
X233465Y353346D03*
X230315D03*
X227165D03*
G54D11*
X180647Y302953D03*
X191000Y310800D03*
X194100Y314000D03*
X190900D03*
X194100Y317100D03*
X190900D03*
Y320300D03*
X187800Y317100D03*
X190900Y323400D03*
X187800Y320200D03*
X191000Y326500D03*
X187800Y323400D03*
Y332800D03*
X194100Y336000D03*
X190900Y332800D03*
X191000Y339000D03*
X194100Y339200D03*
X194000Y345500D03*
X194045Y348544D03*
X191000Y348500D03*
X180454Y353346D03*
X203750Y307750D03*
X200400Y307800D03*
X197200Y307600D03*
X203600Y310800D03*
X200400Y310900D03*
X197200Y310800D03*
X203500Y314000D03*
X200500D03*
X197200D03*
X225591Y307677D03*
X224016Y300000D03*
X215299Y300339D03*
X219291Y313976D03*
Y304528D03*
X222441Y310827D03*
Y304528D03*
X219291Y310827D03*
X211417Y300787D03*
X225591Y310827D03*
Y304528D03*
X219291Y307677D03*
X209843Y310827D03*
X222441Y313976D03*
Y307677D03*
X216142Y310827D03*
X222047Y300000D03*
X212992Y310827D03*
X209843Y307677D03*
X208268Y300787D03*
X219882Y300000D03*
X216142Y313976D03*
X209843Y304528D03*
X216142D03*
Y307677D03*
X197300Y317200D03*
X213000Y317100D03*
X206700Y320300D03*
X200400Y323400D03*
X219291Y320276D03*
X209800Y323500D03*
X203600Y326500D03*
X200400Y326600D03*
X219300Y323400D03*
X216100Y323500D03*
X212900D03*
X209800Y326600D03*
X206700D03*
X200400Y329700D03*
X197300D03*
X219300Y326600D03*
X216100D03*
X213000Y326500D03*
X209800Y329800D03*
X206700Y329700D03*
X197200Y332900D03*
X219300Y329700D03*
X216100D03*
X213000D03*
X209800Y332900D03*
X206700Y332800D03*
X200400Y332900D03*
X197300Y336000D03*
X219300Y332900D03*
X216100D03*
X213000D03*
X209800Y336100D03*
X206540Y336045D03*
X200400Y336100D03*
X216200Y339100D03*
Y336000D03*
X213000D03*
X207000Y339500D03*
X203600Y339200D03*
X200400D03*
X197300D03*
X225600Y342300D03*
X222500Y339200D03*
X219300D03*
X216100Y342300D03*
X210002Y339499D03*
X209900Y345500D03*
X203500D03*
X200400Y342400D03*
X197200Y345500D03*
X222500Y342400D03*
X219300Y342300D03*
X213000Y345500D03*
X210000Y342500D03*
X206700Y345400D03*
X219300Y345500D03*
X225591Y317126D03*
X222441D03*
X225729Y329863D03*
X222441Y329724D03*
X225591Y320276D03*
X222441Y336024D03*
X225591D03*
Y339173D03*
X222441Y332874D03*
Y320276D03*
X216200Y317200D03*
X225591Y332874D03*
X219291Y336024D03*
X216142Y320276D03*
X212992D03*
X222441Y326575D03*
X225591Y323425D03*
X222441D03*
X219300Y348553D03*
X197500Y348500D03*
X225700D03*
X222400Y351700D03*
X216200Y348600D03*
X213000Y348700D03*
X203306Y351680D03*
X225600Y351800D03*
X219300D03*
X213000D03*
X208268Y355768D03*
X203500Y355000D03*
X235433Y304528D03*
X231890Y313976D03*
X228740D03*
X235630Y312402D03*
X231890Y307677D03*
X230315Y300000D03*
X228740Y304528D03*
X237795Y309252D03*
X231890Y310827D03*
X233465Y300000D03*
X238780Y315551D03*
X228740Y307677D03*
X227165Y300000D03*
X236890Y331772D03*
X235630Y318701D03*
X228740Y336024D03*
Y332874D03*
X228602Y320137D03*
X228740Y339173D03*
X235039Y329724D03*
X228740Y323425D03*
X231890Y329724D03*
X235433Y325000D03*
X231890Y323425D03*
X235532Y322244D03*
X236500Y338500D03*
X231890Y339173D03*
X228740Y329724D03*
X231890Y317126D03*
Y332874D03*
X228740Y317126D03*
X228800Y348600D03*
X231900D03*
Y351800D03*
X235000Y355000D03*
X284252Y300787D03*
X271654Y294488D03*
X268504Y307087D03*
X264567Y305709D03*
X271850Y306890D03*
X262598Y312992D03*
X268504Y310236D03*
X283858Y308661D03*
X284252Y303937D03*
X271654Y310236D03*
X264764Y299016D03*
X275591Y311811D03*
X283465D03*
X264961Y293898D03*
X264764Y311811D03*
X268504Y300787D03*
X274803Y297638D03*
X284252D03*
X274803Y300787D03*
X268504Y294488D03*
X284252D03*
X268504Y297638D03*
X271654D03*
X284252Y316535D03*
X271654D03*
X268504D03*
X274803Y325984D03*
X265354D03*
X262205Y321260D03*
X268504Y332283D03*
X263386Y332480D03*
X284252Y329134D03*
X271654Y319685D03*
X275000Y336220D03*
X279528Y327559D03*
Y329528D03*
X284252Y322835D03*
X279134Y321063D03*
X281102D03*
X271654Y338583D03*
Y332283D03*
Y325984D03*
X284252Y338583D03*
X268504Y325984D03*
X265354Y332283D03*
Y316535D03*
X274803Y332283D03*
Y319685D03*
X284252D03*
X265354Y338583D03*
X290551Y310236D03*
X287402Y303937D03*
Y297638D03*
X290748Y294685D03*
X290551Y300787D03*
Y313386D03*
X287402Y300787D03*
Y294488D03*
Y319685D03*
X290551Y325984D03*
Y322835D03*
X287402Y332283D03*
X290551Y316535D03*
X287402Y325984D03*
X290551Y335433D03*
Y332283D03*
Y329134D03*
X287402Y322835D03*
Y316535D03*
Y329134D03*
X294094Y330709D03*
X290551Y319685D03*
G54D12*
X285827Y292913D03*
X273228D03*
X270079D03*
X266929D03*
X285827Y296063D03*
X273228D03*
X270079D03*
X285827Y299213D03*
X273228D03*
X270079D03*
X266929D03*
X285827Y302362D03*
X273228D03*
X270079D03*
X285827Y305512D03*
X273228D03*
X270079D03*
X266929D03*
X285827Y308661D03*
X273228D03*
X270079D03*
X285827Y311811D03*
X273228D03*
X270079D03*
X266929D03*
X285827Y314961D03*
X273228D03*
X270079D03*
X266929D03*
X285827Y318110D03*
X273228D03*
X270079D03*
X266929D03*
X285827Y321260D03*
X273228D03*
X270079D03*
X266929D03*
X285827Y324409D03*
X273228D03*
X270079D03*
X266929D03*
X285827Y327559D03*
X273228D03*
X270079D03*
X266929D03*
X285827Y330709D03*
X273228D03*
X270079D03*
X266929D03*
X285827Y333858D03*
X273228D03*
X270079D03*
X266929D03*
X285827Y337008D03*
X273228D03*
X270079D03*
X266929D03*
X288976Y292913D03*
X292126Y296063D03*
X288976D03*
Y299213D03*
X292126Y302362D03*
X288976D03*
Y305512D03*
X292126Y308661D03*
X288976D03*
X292126Y311811D03*
X288976D03*
X292126Y314961D03*
X288976D03*
X292126Y318110D03*
X288976D03*
X292126Y321260D03*
X288976D03*
X292126Y324409D03*
X288976D03*
X292126Y327559D03*
X288976D03*
X292126Y330709D03*
X288976D03*
X292126Y333858D03*
X288976D03*
X292126Y337008D03*
X288976D03*
G54D13*
G01X183071Y302953D02*
X180647D01*
G01X192520Y315551D02*
X192551D01*
X194100Y317100D01*
G01X189370Y315551D02*
Y315570D01*
X190900Y317100D01*
G01X189370Y331299D02*
X189301D01*
X187800Y332800D01*
G01X189370Y334449D02*
Y334330D01*
X190900Y332800D01*
G01X194100Y339200D02*
X195648Y340748D01*
G01X183071Y353346D02*
X180454D01*
G01X211417Y318701D02*
Y318683D01*
X213000Y317100D01*
G01X217717Y321850D02*
X219291Y320276D01*
G01X208268Y325000D02*
X208300D01*
X209800Y323500D01*
G01X217717Y325000D02*
Y324983D01*
X219300Y323400D01*
G01X214567Y325000D02*
X214600D01*
X216100Y323500D01*
G01X211417Y325000D02*
Y324983D01*
X212900Y323500D01*
G01X208268Y328150D02*
Y328132D01*
X209800Y326600D01*
G01X205118Y328150D02*
X205150D01*
X206700Y326600D01*
G01X217717Y328150D02*
X217750D01*
X219300Y326600D01*
G01X214567Y328150D02*
Y328133D01*
X216100Y326600D01*
G01X211417Y328150D02*
Y328083D01*
X213000Y326500D01*
G01X208268Y331299D02*
X208301D01*
X209800Y329800D01*
G01X205118Y331299D02*
Y331282D01*
X206700Y329700D01*
G01X217717Y331299D02*
Y331283D01*
X219300Y329700D01*
G01X214567Y331299D02*
Y331233D01*
X216100Y329700D01*
G01X211417Y331299D02*
Y331283D01*
X213000Y329700D01*
G01X208268Y334449D02*
Y334432D01*
X209800Y332900D01*
G01X205118Y334449D02*
Y334382D01*
X206700Y332800D01*
G01X217717Y334449D02*
X217751D01*
X219300Y332900D01*
G01X214567Y334449D02*
Y334433D01*
X216100Y332900D01*
G01X211417Y334449D02*
X211451D01*
X213000Y332900D01*
G01X208268Y337598D02*
X208302D01*
X209800Y336100D01*
G01X205118Y337382D02*
X206500Y336000D01*
G01X214567Y337598D02*
X214602D01*
X216200Y336000D01*
G01X211417Y337598D02*
Y337583D01*
X213000Y336000D01*
G01X197300Y339200D02*
X198819Y340719D01*
G01X220866Y347047D02*
X220847D01*
X219300Y345500D01*
G01X216200Y348600D02*
X217717Y347083D01*
G01X201969Y350469D02*
X203250Y351750D01*
G01X220866Y350197D02*
Y350234D01*
X219300Y351800D01*
G01X213000D02*
X214567Y350233D01*
G01X208268Y353346D02*
Y355768D01*
G01X203500Y355000D02*
X201969Y353469D01*
G01X220866Y353346D02*
Y377534D01*
G01X258000Y340000D02*
X238500D01*
X238213Y340287D01*
X233925D01*
X233465Y340748D01*
G01X258000Y342348D02*
X234652D01*
G01X231848D02*
X230315Y340815D01*
G01X233465Y343898D02*
X236000D01*
X237602Y345500D01*
X258000D01*
G01Y349500D02*
X239000D01*
X235200Y345700D01*
G01X232000Y345497D02*
X230400Y343898D01*
G01X258000Y353000D02*
X239500D01*
X233547Y347047D01*
X233465D01*
G01X231900Y348600D02*
X230347Y347047D01*
G01X251500Y370000D02*
X237000Y355500D01*
Y353500D01*
X233697Y350197D01*
X233465D01*
G01X231900Y351800D02*
X230315Y350215D01*
G01X235000Y355000D02*
X233465Y353465D01*
G01X251000Y372000D02*
X236000Y357000D01*
X234000D01*
X230346Y353346D01*
X230315D01*
G01X228900Y377700D02*
Y356300D01*
X227165Y354565D01*
Y353346D01*
G54D14*
G01X224016Y312402D02*
X225591Y310827D01*
G01X224016Y306102D02*
X225591Y304528D01*
G01X217717Y309252D02*
X219291Y307677D01*
G01X211417Y309252D02*
X209843Y310827D01*
G01X220866Y315551D02*
X222441Y313976D01*
G01X220866Y309252D02*
X222441Y307677D01*
G01X214567Y312402D02*
X216142Y310827D01*
G01X224016Y337598D02*
X225591Y339173D01*
G01X224016Y331299D02*
X222441Y332874D01*
G01X224016Y318701D02*
X222441Y320276D01*
G01X227165Y334449D02*
X225591Y332874D01*
G01X220866Y334449D02*
X219291Y336024D01*
G01X214567Y321850D02*
X216142Y320276D01*
G01X211417Y321850D02*
X212992Y320276D01*
G01X220866Y328150D02*
X222441Y326575D01*
G01X227165Y321850D02*
X225591Y323425D01*
G01X220866Y321850D02*
X222441Y323425D01*
G01X230315Y312402D02*
X231890Y310827D01*
G01X233465Y302953D02*
Y300000D01*
G01Y315551D02*
X238780D01*
G01X227165D02*
X228740Y317126D01*
G01X227165Y309252D02*
X228740Y307677D01*
G01X230315Y337598D02*
X231890Y339173D01*
G01X230315Y331299D02*
X228740Y329724D01*
G01X227165Y328150D02*
X228740Y329724D01*
G01X230315Y318701D02*
X231890Y317126D01*
G01X233465Y334449D02*
X231890Y332874D01*
G01X266929Y299213D02*
X266732Y299016D01*
X264764D01*
G01X270079Y314961D02*
X273228Y311811D01*
G01D02*
X275591D01*
G01X285827D02*
X283465D01*
G01X266929Y292913D02*
X265945D01*
X264961Y293898D01*
G01X266929Y311811D02*
X264764D01*
G01X273228Y337008D02*
X271654Y338583D01*
G01X270079Y333858D02*
X271654Y332283D01*
G01X273228Y324409D02*
X271654Y325984D01*
G01X270079Y327559D02*
X271654Y325984D01*
G01X270079Y321260D02*
X273228Y324409D01*
G01X285827Y337008D02*
X284252Y338583D01*
G01X285827Y324409D02*
X287402Y322835D01*
G01X266929Y324409D02*
X268504Y325984D01*
G01X266929Y330709D02*
X265354Y332283D01*
G01X266929Y318110D02*
X265354Y316535D01*
G01X273228Y330709D02*
X274803Y332283D01*
G01X273228Y318110D02*
X274803Y319685D01*
G01X285827Y330709D02*
X287402Y329134D01*
G01X285827Y318110D02*
X284252Y319685D01*
G01X266929Y337008D02*
X265354Y338583D01*
G01X292126Y296063D02*
X290748Y294685D01*
G01X288976Y314961D02*
X287402Y316535D01*
G01X292126Y302362D02*
X290551Y300787D01*
G01X292126Y311811D02*
X290551Y313386D01*
G01X288976Y333858D02*
X290551Y332283D01*
G01X288976Y327559D02*
X290551Y329134D01*
G01X288976Y321260D02*
X287402Y322835D01*
G01X292126Y330709D02*
X294094D01*
G01X292126Y318110D02*
X290551Y319685D01*
G54D15*
G01X186220Y306102D02*
X185263D01*
X183713Y304552D01*
X183709D01*
X183659Y304503D01*
X182429D01*
X182426Y304500D01*
X160500D01*
G01X183071Y306102D02*
X160602D01*
G01X160612Y301000D02*
X184000D01*
X184670Y301670D01*
Y303595D01*
X185578Y304503D01*
X186813D01*
X187770Y305460D01*
Y306695D01*
X189370Y308294D01*
Y309252D01*
G01X160500Y307652D02*
X183652D01*
X183702Y307702D01*
X183713D01*
X185263Y309252D01*
X186220D01*
G01X183071D02*
X160252D01*
G01X160000Y314000D02*
X188000D01*
X189370Y312630D01*
Y312402D01*
G01X160000Y310852D02*
X183713D01*
X185263Y312402D01*
X186220D01*
G01X183071D02*
X159902D01*
G01X160000Y317500D02*
X181151D01*
X181500Y317151D01*
X184849D01*
X186220Y315780D01*
Y315551D01*
G01Y318701D02*
Y318780D01*
X184749Y320251D01*
X182429D01*
X182178Y320000D01*
X160000D01*
G01X160500Y323450D02*
X184550D01*
X186150Y321850D01*
X186220D01*
G01Y325000D02*
X185263D01*
X183713Y326550D01*
X182429D01*
X182379Y326500D01*
X160500D01*
G01X183071Y325000D02*
X161000D01*
G01X160500Y329700D02*
X191200D01*
X192520Y331020D01*
Y331299D01*
G01X160500Y332899D02*
X184601D01*
X186201Y331299D01*
X186220D01*
G01X183071D02*
X160799D01*
G01X160500Y336000D02*
X191000D01*
X192520Y334480D01*
Y334449D01*
G01X159500Y339198D02*
X184302D01*
X185902Y337598D01*
X186220D01*
G01X183071D02*
X159402D01*
G01X186220Y340748D02*
X185650D01*
X184050Y342348D01*
X159000D01*
G01X192520Y340748D02*
X191562D01*
X189963Y342348D01*
X185323D01*
X184670Y343000D01*
Y344490D01*
X183713Y345448D01*
X159420D01*
G01X159500Y351796D02*
X183663D01*
X184621Y350839D01*
Y349604D01*
X185578Y348647D01*
X186813D01*
X187770Y347689D01*
Y346455D01*
X188728Y345497D01*
X189963D01*
X191562Y343898D01*
X192520D01*
G01X159500Y348597D02*
X183713D01*
X184621Y347689D01*
Y346455D01*
X185578Y345497D01*
X186813D01*
X188413Y343898D01*
X189370D01*
G01X192520Y302953D02*
Y275020D01*
G01X189370Y302953D02*
Y275130D01*
G01X186220Y302953D02*
Y275220D01*
G01X194070Y275000D02*
Y303545D01*
X195669Y305145D01*
Y306102D01*
G01X190970Y275000D02*
Y303595D01*
X192520Y305145D01*
Y306102D01*
G01X187820Y275000D02*
Y304000D01*
X189370Y305550D01*
Y306102D01*
G01X192520Y309252D02*
Y309280D01*
X191000Y310800D01*
G01X195669Y312402D02*
Y312431D01*
X194100Y314000D01*
G01X192520Y312402D02*
X192498D01*
X190900Y314000D01*
G01X192520Y318701D02*
X192499D01*
X190900Y320300D01*
G01X189370Y318701D02*
Y318670D01*
X187800Y317100D01*
G01X192520Y321850D02*
X192450D01*
X190900Y323400D01*
G01X189370Y321850D02*
Y321770D01*
X187800Y320200D01*
G01X192520Y325000D02*
X192500D01*
X191000Y326500D01*
G01X189370Y325000D02*
Y324970D01*
X187800Y323400D01*
G01X195669Y334449D02*
X195651D01*
X194100Y336000D01*
G01X192520Y337598D02*
X192402D01*
X191000Y339000D01*
G01X195648Y340748D02*
X195669D01*
G01Y343898D02*
X195602D01*
X194000Y345500D01*
G01X194045Y348544D02*
X194000D01*
Y348500D01*
X195453Y347047D01*
X195669D01*
G01X192520D02*
X192453D01*
X191000Y348500D01*
G01X184670Y378000D02*
Y352704D01*
X185578Y351796D01*
X186863D01*
X187820Y350839D01*
Y349555D01*
X189370Y348005D01*
Y347047D01*
G01X194070Y378500D02*
Y352754D01*
X195669Y351154D01*
Y350197D01*
G01X191000Y378500D02*
Y354019D01*
X190970Y353989D01*
Y351530D01*
X192303Y350197D01*
X192520D01*
G01X187820Y378500D02*
Y352704D01*
X189370Y351154D01*
Y350197D01*
G01X195669Y353346D02*
X195000Y354016D01*
Y378331D01*
G01X192520Y378500D02*
Y353346D01*
G01X189370D02*
X189000Y353717D01*
Y377870D01*
G01X205118Y302953D02*
Y274882D01*
G01X201969Y302953D02*
Y275031D01*
G01X198819Y302953D02*
Y274681D01*
G01X195669Y302953D02*
Y274831D01*
G01X203500Y274500D02*
Y302292D01*
X203519Y302311D01*
Y304019D01*
X205118Y305618D01*
Y306102D01*
G01X200419Y275000D02*
Y303595D01*
X201969Y305145D01*
Y306102D01*
G01X197269Y275000D02*
Y303595D01*
X198819Y305145D01*
Y306102D01*
G01X206668Y275000D02*
Y313668D01*
X208268Y315268D01*
Y315551D01*
G01X203750Y307750D02*
X205118Y309118D01*
Y309252D01*
G01X201969D02*
X201852D01*
X200400Y307800D01*
G01X198819Y309252D02*
Y309219D01*
X197200Y307600D01*
G01X205118Y312402D02*
Y312318D01*
X203600Y310800D01*
G01X201969Y312402D02*
X201902D01*
X200400Y310900D01*
G01X198819Y312402D02*
X198802D01*
X197200Y310800D01*
G01X205118Y315551D02*
X205051D01*
X203500Y314000D01*
G01X201969Y315551D02*
Y315469D01*
X200500Y314000D01*
G01X198819Y315551D02*
X198751D01*
X197200Y314000D01*
G01X198819Y318701D02*
X198801D01*
X197300Y317200D01*
G01X208268Y321850D02*
X208250D01*
X206700Y320300D01*
G01X201969Y321850D02*
X201950D01*
X200400Y323400D01*
G01X205118Y325000D02*
X205100D01*
X203600Y326500D01*
G01X201969Y325000D02*
Y325031D01*
X200400Y326600D01*
G01X201969Y328150D02*
X201950D01*
X200400Y329700D01*
G01X198819Y328150D02*
Y328181D01*
X197300Y329700D01*
G01X195669Y331299D02*
Y331369D01*
X197200Y332900D01*
G01X201969Y334449D02*
X201949D01*
X200400Y332900D01*
G01X198819Y334449D02*
Y334481D01*
X197300Y336000D01*
G01X205118Y337598D02*
Y337382D01*
G01X206500Y336000D02*
Y336045D01*
X206540D01*
G01X201969Y337598D02*
X201898D01*
X200400Y336100D01*
G01X217717Y337598D02*
X217702D01*
X216200Y339100D01*
G01X208268Y340748D02*
X208248D01*
X207000Y339500D01*
G01X205118Y340748D02*
Y340718D01*
X203600Y339200D01*
G01X201969Y340748D02*
X201948D01*
X200400Y339200D01*
G01X198819Y340719D02*
Y340748D01*
G01X224016D02*
X224048D01*
X225600Y342300D01*
G01X220866Y340748D02*
X220952D01*
X222500Y339200D01*
G01X217717Y340748D02*
X217752D01*
X219300Y339200D01*
G01X214567Y340748D02*
Y340767D01*
X216100Y342300D01*
G01X210002Y339499D02*
X210000D01*
Y339500D01*
X211248Y340748D01*
X211417D01*
G01X208268Y343898D02*
X208298D01*
X209900Y345500D01*
G01X205118Y343898D02*
X205102D01*
X203500Y345500D01*
G01X201969Y343898D02*
X201898D01*
X200400Y342400D01*
G01X198819Y343898D02*
X198802D01*
X197200Y345500D01*
G01X224016Y343898D02*
X223998D01*
X222500Y342400D01*
G01X220866Y343898D02*
Y344855D01*
X222466Y346455D01*
Y347653D01*
X221566Y348553D01*
X221553D01*
X221508Y348597D01*
X220224D01*
X220180Y348553D01*
X219300D01*
G01X217717Y343898D02*
Y343883D01*
X219300Y342300D01*
G01X214567Y343898D02*
Y343933D01*
X213000Y345500D01*
G01X211417Y343898D02*
X211398D01*
X210000Y342500D01*
G01X208268Y347047D02*
Y346968D01*
X206700Y345400D01*
G01X220866Y331299D02*
X222441Y329724D01*
G01X216200Y317200D02*
X216068D01*
X214567Y318701D01*
G01X217717D02*
X217701D01*
X216200Y317200D01*
G01X205118Y378000D02*
Y355539D01*
X206668Y353989D01*
Y349555D01*
X205118Y348005D01*
Y347047D01*
G01X201000Y379000D02*
Y354570D01*
X200419Y353989D01*
Y349555D01*
X201969Y348005D01*
Y347047D01*
G01X198819D02*
Y347181D01*
X197500Y348500D01*
G01X224016Y347047D02*
Y347884D01*
X222416Y349484D01*
Y350839D01*
X222400Y350855D01*
Y351700D01*
G01X217717Y347083D02*
Y347047D01*
G01X214567D02*
Y347133D01*
X213000Y348700D01*
G01X201969Y350197D02*
Y350469D01*
G01X203250Y351750D02*
Y351680D01*
X203306D01*
G01X196500Y378500D02*
Y354708D01*
X197219Y353989D01*
Y352754D01*
X198819Y351154D01*
Y350197D01*
G01X224016D02*
Y350216D01*
X225600Y351800D01*
G01X216000Y378000D02*
Y354106D01*
X216117Y353989D01*
Y352383D01*
X217717Y350783D01*
Y350197D01*
G01X214567Y350233D02*
Y350197D01*
G01X209867Y378000D02*
Y352704D01*
X211417Y351154D01*
Y350197D01*
G01X201969Y353469D02*
Y353346D01*
G01X199100Y378776D02*
Y353628D01*
X198819Y353346D01*
G01X224016D02*
Y377984D01*
G01X217717Y353346D02*
Y377783D01*
G01X214567Y353346D02*
Y354933D01*
X213500Y356000D01*
Y377933D01*
G01X211417Y353346D02*
Y377917D01*
G01X234652Y342348D02*
X231848D01*
G01X230315Y340815D02*
Y340748D01*
G01X235200Y345700D02*
X234997Y345497D01*
X232000D01*
G01X230400Y343898D02*
X230315D01*
G01X228800Y348600D02*
Y347724D01*
X228765Y347689D01*
Y345465D01*
X227198Y343898D01*
X227165D01*
G01X236500Y338500D02*
X235000D01*
X234098Y337598D01*
X233465D01*
G01X230347Y347047D02*
X230315D01*
G01X227165D02*
X227153D01*
X225700Y348500D01*
G01X230315Y350215D02*
Y350197D01*
G01X233465Y353465D02*
Y353346D01*
G54D16*
G01X224016Y309252D02*
X225591Y307677D01*
G01X224016Y302953D02*
Y300000D01*
G01X214567Y302953D02*
X215299Y302220D01*
Y300339D01*
G01X217717Y315551D02*
X219291Y313976D01*
G01X217717Y306102D02*
X219291Y304528D01*
G01X220866Y312402D02*
X222441Y310827D01*
G01X220866Y306102D02*
X222441Y304528D01*
G01X217717Y312402D02*
X219291Y310827D01*
G01X211417Y302953D02*
Y300787D01*
G01X220866Y302953D02*
Y301181D01*
X222047Y300000D01*
G01X211417Y312402D02*
X212992Y310827D01*
G01X208268Y309252D02*
X209843Y307677D01*
G01X208268Y302953D02*
Y300787D01*
G01X219882Y300000D02*
X217717Y302165D01*
Y302953D01*
G01X214567Y315551D02*
X216142Y313976D01*
G01X211417Y306102D02*
X209843Y304528D01*
G01X214567Y306102D02*
X216142Y304528D01*
G01X214567Y309252D02*
X216142Y307677D01*
G01X224016Y315551D02*
X225591Y317126D01*
G01X220866Y318701D02*
X222441Y317126D01*
G01X224016Y328150D02*
X225729Y329863D01*
G01X224016Y321850D02*
X225591Y320276D01*
G01X220866Y337598D02*
X222441Y336024D01*
G01X224016Y334449D02*
X225591Y336024D01*
G01X227165Y325000D02*
X224016D01*
G01X230315Y306102D02*
X231890Y304528D01*
X235433D01*
G01X230315Y315551D02*
X231890Y313976D01*
G01X227165Y312402D02*
X228740Y313976D01*
G01X233465Y312402D02*
X235630D01*
G01X230315Y309252D02*
X231890Y307677D01*
G01X230315Y302953D02*
Y300000D01*
G01X227165Y306102D02*
X228740Y304528D01*
G01X237795Y309252D02*
X233465D01*
G01X227165Y302953D02*
Y300000D01*
G01X236890Y331772D02*
X233937D01*
X233465Y331299D01*
G01Y318701D02*
X235630D01*
G01X230315Y334449D02*
X228740Y336024D01*
G01X227165Y331299D02*
X228740Y332874D01*
G01X227165Y318701D02*
X228602Y320137D01*
G01X227165Y337598D02*
X228740Y339173D01*
G01X233465Y328150D02*
X235039Y329724D01*
G01X230315Y325000D02*
X228740Y323425D01*
G01X230315Y328150D02*
X231890Y329724D01*
G01X233465Y325000D02*
X235433D01*
G01X230315Y321850D02*
X231890Y323425D01*
G01X233465Y321850D02*
X235039D01*
X235433Y322244D01*
X235532D01*
G01X285827Y302362D02*
X284252Y300787D01*
G01X270079Y292913D02*
X271654Y294488D01*
G01X270079Y305512D02*
X268504Y307087D01*
G01X266929Y305512D02*
X266732Y305709D01*
X264567D01*
G01X273228Y305512D02*
X271850Y306890D01*
G01X273228Y314961D02*
X271654Y316535D01*
G01X262598Y312992D02*
X263780Y314173D01*
X266142D01*
X266929Y314961D01*
G01X270079Y308661D02*
X268504Y310236D01*
G01X285827Y308661D02*
X283858D01*
G01X285827Y305512D02*
X284252Y303937D01*
G01X273228Y308661D02*
X271654Y310236D01*
G01X288976Y308661D02*
X287402Y310236D01*
X282874D01*
X281693Y311417D01*
X280579D01*
X280447Y311549D01*
Y311550D01*
X279724Y312272D01*
Y320472D01*
X279134Y321063D01*
G01X288976Y311811D02*
X287402Y313386D01*
X282874D01*
X281693Y312205D01*
X280906D01*
X280512Y312598D01*
Y320472D01*
X281102Y321063D01*
G01X270079Y302362D02*
X268504Y300787D01*
G01X273228Y296063D02*
X274803Y297638D01*
G01X285827Y299213D02*
X284252Y297638D01*
G01X273228Y302362D02*
X274803Y300787D01*
G01X270079Y296063D02*
X268504Y294488D01*
G01X285827Y296063D02*
X284252Y294488D01*
G01X270079Y299213D02*
X268504Y297638D01*
G01X273228Y299213D02*
X271654Y297638D01*
G01X285827Y314961D02*
X284252Y316535D01*
G01X270079Y318110D02*
X268504Y316535D01*
G01X273228Y327559D02*
X274803Y325984D01*
G01X266929Y327559D02*
X265354Y325984D01*
G01X266929Y321260D02*
X262205D01*
G01X270079Y330709D02*
X268504Y332283D01*
G01X266929Y333858D02*
X264764D01*
X263386Y332480D01*
G01X285827Y327559D02*
X284252Y329134D01*
G01X273228Y321260D02*
X271654Y319685D01*
G01X273228Y333858D02*
X275000Y335630D01*
Y336220D01*
G01X285827Y333858D02*
X284646D01*
X282677Y331890D01*
Y329134D01*
X281102Y327559D01*
X279528D01*
G01Y329528D02*
X280906D01*
X281890Y330512D01*
Y333071D01*
X284252Y335433D01*
X287402D01*
X288976Y337008D01*
G01X285827Y321260D02*
X284252Y322835D01*
G01X292126Y314961D02*
X290551Y316535D01*
G01X292126Y308661D02*
X290551Y310236D01*
G01X288976Y305512D02*
X287402Y303937D01*
G01X288976Y299213D02*
X287402Y297638D01*
G01X288976Y302362D02*
X287402Y300787D01*
G01X288976Y296063D02*
X287402Y294488D01*
G01X288976Y318110D02*
X287402Y319685D01*
G01X292126Y327559D02*
X290551Y325984D01*
G01X292126Y321260D02*
X290551Y322835D01*
G01X288976Y330709D02*
X287402Y332283D01*
G01X288976Y324409D02*
X287402Y325984D01*
G01X292126Y333858D02*
X290551Y335433D01*
M02*
